<?xml version="1.0" encoding="UTF-8" standalone="no"?>
<!-- Created with Inkscape (http://www.inkscape.org/) -->

<svg
   xmlns:dc="http://purl.org/dc/elements/1.1/"
   xmlns:cc="http://creativecommons.org/ns#"
   xmlns:rdf="http://www.w3.org/1999/02/22-rdf-syntax-ns#"
   xmlns:svg="http://www.w3.org/2000/svg"
   xmlns="http://www.w3.org/2000/svg"
   xmlns:sodipodi="http://sodipodi.sourceforge.net/DTD/sodipodi-0.dtd"
   xmlns:inkscape="http://www.inkscape.org/namespaces/inkscape"
   width="512"
   height="512"
   id="svg2"
   version="1.1"
   inkscape:version="0.48.5 r10040"
   sodipodi:docname="icon.svg">
  <defs
     id="defs4" />
  <sodipodi:namedview
     id="base"
     pagecolor="#ffffff"
     bordercolor="#666666"
     borderopacity="1.0"
     inkscape:pageopacity="0.0"
     inkscape:pageshadow="2"
     inkscape:zoom="1.4"
     inkscape:cx="324.31124"
     inkscape:cy="322.9433"
     inkscape:document-units="px"
     inkscape:current-layer="layer1"
     showgrid="false"
     inkscape:window-width="1196"
     inkscape:window-height="1109"
     inkscape:window-x="2689"
     inkscape:window-y="141"
     inkscape:window-maximized="0" />
  <metadata
     id="metadata7">
    <rdf:RDF>
      <cc:Work
         rdf:about="">
        <dc:format>image/svg+xml</dc:format>
        <dc:type
           rdf:resource="http://purl.org/dc/dcmitype/StillImage" />
        <dc:title />
      </cc:Work>
    </rdf:RDF>
  </metadata>
  <g
     inkscape:label="Layer 1"
     inkscape:groupmode="layer"
     id="layer1"
     transform="translate(0,-540.36218)">
    <path
       sodipodi:type="arc"
       style="fill:#000000;fill-opacity:1;stroke:none"
       id="path2986"
       sodipodi:cx="270.72089"
       sodipodi:cy="251.38065"
       sodipodi:rx="241.42645"
       sodipodi:ry="241.42645"
       d="m 512.14734,251.38065 c 0,133.33614 -108.09031,241.42645 -241.42645,241.42645 -133.33615,0 -241.426456,-108.09031 -241.426456,-241.42645 0,-133.33615 108.090306,-241.4264569 241.426456,-241.4264569 133.33614,0 241.42645,108.0903069 241.42645,241.4264569 z"
       transform="matrix(1.0603643,0,0,1.0603643,-31.062773,529.80711)" />
    <g
       style="font-size:394.38067627px;font-style:normal;font-weight:normal;line-height:125%;letter-spacing:0px;word-spacing:0px;fill:#ffffff;fill-opacity:1;stroke:none;font-family:Sans"
       id="text2987">
      <path
         d="m 272.06894,762.2731 c 11.68234,1.7e-4 20.54049,-2.56741 26.57448,-7.70275 6.03364,-5.13497 9.05054,-12.70934 9.05073,-22.7231 -1.9e-4,-9.88498 -3.01709,-17.39515 -9.05073,-22.53054 -6.03399,-5.26331 -14.89214,-7.89508 -26.57448,-7.89532 l -41.01713,0 0,60.85171 41.01713,0 m 2.5034,125.74735 c 14.89181,5e-5 26.06078,-3.14523 33.50695,-9.43586 7.57417,-6.29051 11.36135,-15.79056 11.36155,-28.50017 -2e-4,-12.45267 -3.72319,-21.76015 -11.16898,-27.92246 -7.44617,-6.29045 -18.67933,-9.43574 -33.69952,-9.43586 l -43.52053,0 0,75.29435 43.52053,0 m 68.93959,-103.40938 c 15.91877,4.62179 28.24315,13.159 36.97319,25.61163 8.72951,12.45289 13.09439,27.72999 13.09467,45.83135 -2.8e-4,27.72995 -9.37194,48.39897 -28.11503,62.00712 -18.74358,13.60819 -47.24372,20.41228 -85.5005,20.41228 l -123.05139,0 0,-287.50505 111.3047,0 c 39.92572,2.8e-4 68.81099,6.0341 86.65591,18.10145 17.97283,12.0679 26.95936,31.38894 26.95962,57.96318 -2.6e-4,13.99352 -3.27393,25.93277 -9.82101,35.81777 -6.54758,9.75698 -16.04762,17.0104 -28.50016,21.76027"
         style="font-variant:normal;font-weight:bold;font-stretch:normal;font-family:Webdings;-inkscape-font-specification:Webdings Bold"
         id="path3013" />
    </g>
    <path
       transform="matrix(0.96890975,0,0,0.96890975,-6.3041178,552.79701)"
       d="m 512.14734,251.38065 c 0,133.33614 -108.09031,241.42645 -241.42645,241.42645 -133.33615,0 -241.426456,-108.09031 -241.426456,-241.42645 0,-133.33615 108.090306,-241.4264569 241.426456,-241.4264569 133.33614,0 241.42645,108.0903069 241.42645,241.4264569 z"
       sodipodi:ry="241.42645"
       sodipodi:rx="241.42645"
       sodipodi:cy="251.38065"
       sodipodi:cx="270.72089"
       id="path2988"
       style="fill:none;stroke:#ffffff;stroke-width:10.02402973;stroke-miterlimit:4;stroke-opacity:1;stroke-dasharray:none"
       sodipodi:type="arc" />
    <g
       id="g3057"
       transform="translate(-14.285714,-8.5714286)">
      <path
         style="font-size:77.49773407px;font-style:normal;font-variant:normal;font-weight:bold;font-stretch:normal;line-height:125%;letter-spacing:0px;word-spacing:0px;fill:#000000;fill-opacity:1;stroke:none;font-family:Webdings;-inkscape-font-specification:Webdings Bold"
         d="m 483.21875,671.1875 c -11.73021,0.14393 -21.83258,8.25154 -27.5625,17.875 -6.52963,6.23275 -12.92335,12.62744 -19.3125,19.0625 -2.66185,2.54773 -4.01853,7.34385 -4.71875,10.0625 -4.70305,-3.86208 -7.48887,-10.25151 -13.34375,-12.46875 -6.3642,-0.9005 -8.15951,7.33648 -12.75654,10.0173 -1.81604,3.35782 -10.46733,6.88147 -7.64175,10.33441 5.82407,5.74091 11.59983,11.44446 17.39829,17.27329 -20.05012,-2.07539 -39.16206,18.06989 -35.1875,38.03125 -17.08195,-3.4222 -34.34833,10.35478 -37.6875,26.625 -5.37825,-3.59169 -10.14914,2.83023 -13.46875,6.28125 -2.62217,3.72933 -4.67682,7.76858 -8.90625,9.84375 -3.40003,3.74643 -7.03925,7.34432 -10.28125,11.03125 -1.63103,3.41312 -0.18543,7.42842 2.25,10.03125 -9.65293,-1.32118 -20.115,3.21556 -24.96875,11.75 -4.29095,-2.95401 -6.58408,-9.25822 -11.78125,-10.46875 -3.973,1.09436 -4.54139,6.36191 -8.47133,7.87725 -4.29464,3.78284 -10.10345,9.34056 -8.52867,15.43525 1.7699,3.00062 6.23984,4.59197 7.53125,7.46875 -4.92399,3.24546 -5.67391,10.56951 -11.3125,12.65625 -4.41709,3.73322 -8.4346,8.50797 -11.28125,13.3125 -0.8466,3.26547 0.65551,6.65957 2.90625,9 -19.88816,-2.15954 -38.43031,18.16854 -34.15625,37.875 -10.29749,-4.74227 -22.80663,0.53263 -28.0625,10.15625 -4.1923,-3.24961 -8.95426,-10.81103 -12.79039,-11.45181 -4.45731,8.81053 -16.13109,12.61443 -16.83461,23.48306 1.51594,1.75641 9.50264,8.7414 4.25,5.09375 -5.36846,-4.40443 -10.58894,1.4867 -15.3125,4.21875 -11.68994,7.64728 -23.46443,20.94785 -19.78125,35.93745 2.46792,8.9719 10.41864,15.9648 19.4375,17.9063 -8.21148,0.9112 2.58526,6.3573 4.54394,9.597 4.53583,4.5108 9.06256,9.0315 13.54981,13.5905 16.25636,-7.0642 34.37333,-18.7996 36.59375,-37.9375 0.7628,-1.4695 -2.0173,-8.2461 0.96565,-4.1061 3.86893,6.0263 7.75149,6.9499 11.62964,0.3725 4.8918,-4.9359 9.77315,-9.883 14.71721,-14.7664 1.58821,-1.5319 7.4899,-7.3919 10.71875,-10.71875 2.09648,-3.99553 12.2629,-8.40883 9.03125,-12.125 -1.77906,-1.77238 -8.36946,-5.76724 -2.6875,-4.71875 17.48218,-0.4351 29.76302,-16.12386 36.25,-30.78125 4.62596,3.22584 8.72659,-3.88505 11.625,-6.78125 3.15844,-4.248 10.76079,-7.06313 9.6875,-13.34375 -5.19585,-8.46541 -16.31614,-12.40366 -19.46875,-22.1875 1.82283,-3.24363 7.33664,-5.69162 9.24688,-0.77765 6.25689,6.17864 12.37072,12.38771 18.53437,18.6214 8.54681,-8.81567 17.18533,-17.70051 26.8125,-25.28125 4.75164,-5.46226 6.97572,-12.97096 6.09375,-20.15625 2.27602,4.01259 8.56905,6.39087 11.25,1.21875 5.02894,-5.19755 10.35366,-10.30738 15.53125,-15.46875 -5.1846,-9.82092 -17.57195,-13.95185 -21.0625,-24.6875 0.75004,-1.64642 3.53948,-3.70602 4.1875,-0.90625 10.16718,11.66921 29.67592,13.32209 41.125,2.6875 9.20362,-7.11167 15.23413,-19.34523 12.71875,-31.09375 19.90743,4.29504 40.11168,-15.17488 38.0625,-35.125 2.7504,1.26399 5.6229,8.83297 8.4375,5.65625 6.15629,-6.22884 12.26532,-12.5058 18.53125,-18.625 -0.49964,-2.08606 -4.73089,-5.3154 -0.21875,-4.625 10.06019,-0.84278 14.43723,-11.15341 21.62108,-16.79304 8.52303,-8.78352 19.75403,-15.476 25.13768,-27.11683 2.01067,-4.20338 6.45655,-9.50601 1.55374,-13.21513 -3.76282,-3.47905 -8.19043,-6.65699 -9.375,-11.875 -6.03458,-7.4357 -15.06649,-13.11588 -24.96875,-12.78125 z M 458.875,721.375 c 0.89025,1.73123 5.7182,4.77409 1.375,3.8125 -2.78801,0.38187 -2.51161,-3.64144 -1.375,-3.8125 z m -50.96875,49.96875 c 2.66804,0.8206 7.13079,3.77729 5.84375,6.625 -2.87551,-0.36513 -5.97108,-3.94829 -5.84375,-6.625 z m -37.625,37.75 c 2.75704,0.74975 6.91671,3.69838 5.875,6.59375 -2.77244,-0.0996 -6.22919,-4.38096 -5.875,-6.59375 z m -64.6875,64.875 c 2.70451,0.76146 6.41218,3.39343 5.78125,6.15625 -2.91053,-0.34781 -4.89536,-3.76985 -5.78125,-6.15625 z M 170.90625,988.9375 c -2.03023,-1.9085 -3.99156,-4.06122 0,0 z"
         id="path3007"
         inkscape:connector-curvature="0" />
    </g>
    <g
       transform="matrix(0.70710678,-0.70710678,0.70710678,0.70710678,0,0)"
       style="font-size:77.49773407px;font-style:normal;font-weight:normal;line-height:125%;letter-spacing:0px;word-spacing:0px;fill:#ffffff;fill-opacity:1;stroke:none;font-family:Sans"
       id="text2998">
      <path
         d="m -590.4438,788.79713 0,11.95766 c -3.10298,-1.38745 -6.13023,-2.43437 -9.08177,-3.14078 -2.95161,-0.70631 -5.7392,-1.05949 -8.36279,-1.05954 -3.48137,5e-5 -6.05453,0.47937 -7.7195,1.43795 -1.66501,0.95868 -2.4975,2.44707 -2.49749,4.4652 -10e-6,1.51367 0.55498,2.69934 1.66499,3.55703 1.1352,0.83253 3.1786,1.5515 6.1302,2.15692 l 6.20587,1.24874 c 6.28151,1.26139 10.74671,3.17865 13.3956,5.75178 2.6488,2.5732 3.97323,6.23113 3.97328,10.9738 -5e-5,6.23112 -1.85425,10.8729 -5.56259,13.92538 -3.6832,3.02725 -9.32145,4.54088 -16.91478,4.54088 -3.58228,0 -7.17714,-0.34057 -10.7846,-1.0217 -3.60749,-0.68113 -7.21497,-1.69021 -10.82244,-3.02725 l 0,-12.29823 c 3.60747,1.91728 7.08881,3.36784 10.44403,4.35168 3.38042,0.95864 6.63471,1.43796 9.7629,1.43795 3.17859,10e-6 5.613,-0.52976 7.30325,-1.58931 1.69019,-1.05953 2.53529,-2.57315 2.53533,-4.54088 -4e-5,-1.76589 -0.58026,-3.12815 -1.74067,-4.0868 -1.13526,-0.95861 -3.41831,-1.81633 -6.84917,-2.57317 l -5.63826,-1.24874 c -5.65089,-1.21088 -9.78814,-3.14075 -12.41175,-5.78962 -2.5984,-2.64882 -3.89759,-6.21846 -3.89759,-10.70892 0,-5.6256 1.81635,-9.95205 5.44906,-12.97936 3.63269,-3.0272 8.8547,-4.54082 15.66605,-4.54088 3.10291,6e-5 6.29413,0.23972 9.57369,0.71897 3.27949,0.45415 6.67254,1.14789 10.17915,2.08124"
         style="font-variant:normal;font-weight:bold;font-stretch:normal;fill:#ffffff;font-family:Webdings;-inkscape-font-specification:Webdings Bold"
         id="path2991" />
      <path
         d="m -531.90425,817.70742 0,25.80735 -13.62265,0 0,-4.20032 0,-15.47684 c -4e-5,-3.70836 -0.0883,-6.2563 -0.26489,-7.64382 -0.15139,-1.38746 -0.42889,-2.40916 -0.83249,-3.06509 -0.52981,-0.88292 -1.24878,-1.56405 -2.15692,-2.0434 -0.90821,-0.50451 -1.94252,-0.75678 -3.10294,-0.75682 -2.82546,4e-5 -5.04545,1.09742 -6.65996,3.29215 -1.61456,2.16956 -2.42182,5.18419 -2.4218,9.04392 l 0,20.85022 -13.54697,0 0,-58.88011 13.54697,0 0,22.70441 c 2.04337,-2.47222 4.2129,-4.28857 6.5086,-5.44906 2.29564,-1.18563 4.83096,-1.77847 7.60597,-1.77851 4.89403,4e-5 8.60241,1.50105 11.12517,4.50304 2.54789,3.00206 3.82186,7.36635 3.82191,13.09288"
         style="font-variant:normal;font-weight:bold;font-stretch:normal;fill:#ffffff;font-family:Webdings;-inkscape-font-specification:Webdings Bold"
         id="path2993" />
      <path
         d="m -476.95957,822.21046 0,3.85975 -31.67266,0 c 0.32793,3.17863 1.47577,5.5626 3.4435,7.15189 1.9677,1.58932 4.71745,2.38397 8.24927,2.38397 2.85064,0 5.76437,-0.41624 8.7412,-1.24875 3.00199,-0.85771 6.0797,-2.14429 9.23313,-3.85975 l 0,10.44403 c -3.20389,1.21091 -6.40773,2.11908 -9.61153,2.72453 -3.20388,0.63068 -6.40773,0.94602 -9.61154,0.94602 -7.66907,0 -13.63528,-1.94249 -17.89865,-5.82747 -4.23816,-3.91019 -6.35724,-9.38447 -6.35723,-16.42286 -10e-6,-6.9122 2.08123,-12.34864 6.24371,-16.30933 4.18769,-3.96062 9.93947,-5.94095 17.25536,-5.94099 6.65992,4e-5 11.98284,2.0056 15.96877,6.01667 4.01106,4.01114 6.01662,9.3719 6.01667,16.08229 m -13.92538,-4.50304 c -3e-5,-2.57314 -0.75684,-4.64176 -2.27044,-6.20587 -1.48843,-1.58928 -3.44353,-2.38393 -5.8653,-2.38397 -2.62365,4e-5 -4.75534,0.74424 -6.39508,2.2326 -1.63978,1.46321 -2.66148,3.58228 -3.0651,6.35724 l 17.59592,0"
         style="font-variant:normal;font-weight:bold;font-stretch:normal;fill:#ffffff;font-family:Webdings;-inkscape-font-specification:Webdings Bold"
         id="path2995" />
      <path
         d="m -435.25914,812.67461 c -1.18571,-0.55497 -2.37138,-0.9586 -3.55702,-1.2109 -1.16048,-0.27747 -2.33354,-0.41622 -3.51919,-0.41625 -3.48137,3e-5 -6.16805,1.12264 -8.06006,3.36782 -1.86683,2.22001 -2.80023,5.41124 -2.80021,9.57369 l 0,19.5258 -13.54697,0 0,-42.38157 13.54697,0 0,6.96268 c 1.74065,-2.77494 3.73359,-4.79311 5.97882,-6.05451 2.27042,-1.28654 4.98233,-1.92983 8.13575,-1.92987 0.45406,4e-5 0.94599,0.0253 1.47579,0.0757 0.52973,0.0253 1.29916,0.10095 2.30828,0.22704 l 0.0378,12.26039"
         style="font-variant:normal;font-weight:bold;font-stretch:normal;fill:#ffffff;font-family:Webdings;-inkscape-font-specification:Webdings Bold"
         id="path2997" />
      <path
         d="m -405.89476,834.77357 c 2.90109,1e-5 5.10846,-1.05953 6.62213,-3.17862 1.53881,-2.11906 2.30824,-5.19677 2.30828,-9.23313 -4e-5,-4.03631 -0.76947,-7.11402 -2.30828,-9.23312 -1.51367,-2.11905 -3.72104,-3.17859 -6.62213,-3.17862 -2.90114,3e-5 -5.13374,1.07218 -6.6978,3.21646 -1.53887,2.1191 -2.3083,5.1842 -2.30828,9.19528 -2e-5,4.01113 0.76941,7.08884 2.30828,9.23313 1.56406,2.11909 3.79666,3.17863 6.6978,3.17862 m -9.00608,-27.4345 c 1.86679,-2.47222 3.93541,-4.28857 6.20587,-5.44906 2.27042,-1.18563 4.88142,-1.77847 7.83303,-1.77851 5.22197,4e-5 9.51058,2.08128 12.86583,6.24371 3.35516,4.13728 5.03276,9.47282 5.03281,16.00661 -5e-5,6.53385 -1.67765,11.88199 -5.03281,16.04446 -3.35525,4.13725 -7.64386,6.20587 -12.86583,6.20587 -2.95161,0 -5.56261,-0.58022 -7.83303,-1.74067 -2.27046,-1.18567 -4.33908,-3.01464 -6.20587,-5.4869 l 0,6.13019 -13.54697,0 0,-58.88011 13.54697,0 0,22.70441"
         style="font-variant:normal;font-weight:bold;font-stretch:normal;fill:#ffffff;font-family:Webdings;-inkscape-font-specification:Webdings Bold"
         id="path2999" />
      <path
         d="m -341.41423,812.67461 c -1.18571,-0.55497 -2.37138,-0.9586 -3.55702,-1.2109 -1.16048,-0.27747 -2.33354,-0.41622 -3.51919,-0.41625 -3.48137,3e-5 -6.16805,1.12264 -8.06006,3.36782 -1.86683,2.22001 -2.80023,5.41124 -2.80021,9.57369 l 0,19.5258 -13.54697,0 0,-42.38157 13.54697,0 0,6.96268 c 1.74065,-2.77494 3.73359,-4.79311 5.97882,-6.05451 2.27042,-1.28654 4.98233,-1.92983 8.13575,-1.92987 0.45406,4e-5 0.94599,0.0253 1.47579,0.0757 0.52973,0.0253 1.29916,0.10095 2.30828,0.22704 l 0.0378,12.26039"
         style="font-variant:normal;font-weight:bold;font-stretch:normal;fill:#ffffff;font-family:Webdings;-inkscape-font-specification:Webdings Bold"
         id="path3001" />
      <path
         d="m -314.43382,809.79872 c -3.00206,3e-5 -5.29772,1.08479 -6.88701,3.25429 -1.5641,2.14434 -2.34614,5.24727 -2.34612,9.30881 -2e-5,4.06159 0.78202,7.17714 2.34612,9.34666 1.58929,2.14431 3.88495,3.21646 6.88701,3.21645 2.95154,10e-6 5.20937,-1.07214 6.77348,-3.21645 1.56405,-2.16952 2.34609,-5.28507 2.34612,-9.34666 -3e-5,-4.06154 -0.78207,-7.16447 -2.34612,-9.30881 -1.56411,-2.1695 -3.82194,-3.25426 -6.77348,-3.25429 m 0,-9.68722 c 7.2906,4e-5 12.97931,1.96776 17.06615,5.90315 4.11197,3.93546 6.16798,9.38452 6.16803,16.34717 -5e-5,6.96271 -2.05606,12.41176 -6.16803,16.34718 -4.08684,3.93544 -9.77555,5.90315 -17.06615,5.90315 -7.31589,0 -13.04244,-1.96771 -17.17968,-5.90315 -4.11203,-3.93542 -6.16803,-9.38447 -6.16803,-16.34718 0,-6.96265 2.056,-12.41171 6.16803,-16.34717 4.13724,-3.93539 9.86379,-5.90311 17.17968,-5.90315"
         style="font-variant:normal;font-weight:bold;font-stretch:normal;fill:#ffffff;font-family:Webdings;-inkscape-font-specification:Webdings Bold"
         id="path3003" />
      <path
         d="m -261.1541,809.79872 c -3.00205,3e-5 -5.29772,1.08479 -6.88701,3.25429 -1.5641,2.14434 -2.34614,5.24727 -2.34612,9.30881 -2e-5,4.06159 0.78202,7.17714 2.34612,9.34666 1.58929,2.14431 3.88496,3.21646 6.88701,3.21645 2.95154,10e-6 5.20937,-1.07214 6.77348,-3.21645 1.56405,-2.16952 2.34609,-5.28507 2.34613,-9.34666 -4e-5,-4.06154 -0.78208,-7.16447 -2.34613,-9.30881 -1.56411,-2.1695 -3.82194,-3.25426 -6.77348,-3.25429 m 0,-9.68722 c 7.29061,4e-5 12.97932,1.96776 17.06615,5.90315 4.11197,3.93546 6.16798,9.38452 6.16803,16.34717 -5e-5,6.96271 -2.05606,12.41176 -6.16803,16.34718 -4.08683,3.93544 -9.77554,5.90315 -17.06615,5.90315 -7.31589,0 -13.04244,-1.96771 -17.17967,-5.90315 -4.11203,-3.93542 -6.16804,-9.38447 -6.16804,-16.34718 0,-6.96265 2.05601,-12.41171 6.16804,-16.34717 4.13723,-3.93539 9.86378,-5.90311 17.17967,-5.90315"
         style="font-variant:normal;font-weight:bold;font-stretch:normal;fill:#ffffff;font-family:Webdings;-inkscape-font-specification:Webdings Bold"
         id="path3005" />
      <path
         d="m -228.04353,784.63466 13.54697,0 0,32.05106 15.59037,-15.55252 15.74172,0 -20.69885,19.45011 22.326,22.93146 -16.42286,0 -16.53638,-17.6716 0,17.6716 -13.54697,0 0,-58.88011"
         style="font-variant:normal;font-weight:bold;font-stretch:normal;fill:#ffffff;font-family:Webdings;-inkscape-font-specification:Webdings Bold"
         id="path3008" />
      <path
         d="m -136.242,822.21046 0,3.85975 -31.67266,0 c 0.32794,3.17863 1.47577,5.5626 3.44351,7.15189 1.96769,1.58932 4.71745,2.38397 8.24927,2.38397 2.85063,0 5.76436,-0.41624 8.7412,-1.24875 3.00199,-0.85771 6.07969,-2.14429 9.23313,-3.85975 l 0,10.44403 c -3.20389,1.21091 -6.40773,2.11908 -9.61154,2.72453 -3.20388,0.63068 -6.40772,0.94602 -9.61153,0.94602 -7.66907,0 -13.63528,-1.94249 -17.89865,-5.82747 -4.23816,-3.91019 -6.35724,-9.38447 -6.35724,-16.42286 0,-6.9122 2.08124,-12.34864 6.24372,-16.30933 4.18769,-3.96062 9.93947,-5.94095 17.25535,-5.94099 6.65993,4e-5 11.98285,2.0056 15.96877,6.01667 4.01107,4.01114 6.01662,9.3719 6.01667,16.08229 m -13.92537,-4.50304 c -4e-5,-2.57314 -0.75685,-4.64176 -2.27044,-6.20587 -1.48843,-1.58928 -3.44353,-2.38393 -5.86531,-2.38397 -2.62365,4e-5 -4.75534,0.74424 -6.39508,2.2326 -1.63978,1.46321 -2.66148,3.58228 -3.06509,6.35724 l 17.59592,0"
         style="font-variant:normal;font-weight:bold;font-stretch:normal;fill:#ffffff;font-family:Webdings;-inkscape-font-specification:Webdings Bold"
         id="path3010" />
    </g>
  </g>
</svg>
