<?xml version="1.0" encoding="UTF-8" standalone="no"?>
<!-- Created with Inkscape (http://www.inkscape.org/) -->

<svg
   xmlns:dc="http://purl.org/dc/elements/1.1/"
   xmlns:cc="http://creativecommons.org/ns#"
   xmlns:rdf="http://www.w3.org/1999/02/22-rdf-syntax-ns#"
   xmlns:svg="http://www.w3.org/2000/svg"
   xmlns="http://www.w3.org/2000/svg"
   xmlns:sodipodi="http://sodipodi.sourceforge.net/DTD/sodipodi-0.dtd"
   xmlns:inkscape="http://www.inkscape.org/namespaces/inkscape"
   width="512"
   height="512"
   id="svg2"
   version="1.1"
   inkscape:version="0.48.5 r10040"
   sodipodi:docname="notif.svg">
  <defs
     id="defs4" />
  <sodipodi:namedview
     id="base"
     pagecolor="#ffffff"
     bordercolor="#666666"
     borderopacity="1.0"
     inkscape:pageopacity="0"
     inkscape:pageshadow="2"
     inkscape:zoom="0.98994949"
     inkscape:cx="325.75038"
     inkscape:cy="171.41405"
     inkscape:document-units="px"
     inkscape:current-layer="layer1"
     showgrid="false"
     inkscape:window-width="1196"
     inkscape:window-height="1109"
     inkscape:window-x="2689"
     inkscape:window-y="141"
     inkscape:window-maximized="0" />
  <metadata
     id="metadata7">
    <rdf:RDF>
      <cc:Work
         rdf:about="">
        <dc:format>image/svg+xml</dc:format>
        <dc:type
           rdf:resource="http://purl.org/dc/dcmitype/StillImage" />
        <dc:title />
      </cc:Work>
    </rdf:RDF>
  </metadata>
  <g
     inkscape:label="Layer 1"
     inkscape:groupmode="layer"
     id="layer1"
     transform="translate(0,-540.36218)">
    <path
       style="fill:#ffffff;fill-opacity:1;stroke:none"
       d="M 256 0 C 114.61511 3.7895613e-14 0 114.61511 0 256 C 0 342.48198 42.899911 418.93543 108.5625 465.28125 C 108.67168 466.37873 108.85031 467.47584 109.125 468.59375 C 111.59292 477.56565 119.54364 484.5585 128.5625 486.5 C 120.35102 487.4112 131.13507 492.85405 133.09375 496.09375 C 137.62958 500.60455 142.169 505.1285 146.65625 509.6875 C 154.15908 506.42714 162.04399 502.17517 168.59375 496.65625 C 195.86977 506.56501 225.30054 512 256 512 C 397.38488 512 512 397.38488 512 256 C 512 225.17145 506.52025 195.62223 496.53125 168.25 C 498.5479 165.78586 500.33121 163.12522 501.71875 160.125 C 503.72942 155.92162 508.18406 150.61537 503.28125 146.90625 C 499.51843 143.4272 495.09082 140.24926 493.90625 135.03125 C 489.04298 129.03882 482.23711 124.17024 474.59375 122.6875 C 429.62504 49.10392 348.54946 0 256 0 z M 256 17.21875 C 339.75432 17.21875 413.49968 60.383241 456.125 125.6875 C 453.27066 127.21474 450.63677 129.17796 448.28125 131.4375 C 407.46302 68.531012 336.62138 26.9375 256 26.9375 C 129.43379 26.9375 26.9375 129.43379 26.9375 256 C 26.9375 331.47986 63.415211 398.36944 119.6875 440.09375 C 117.38355 442.36416 115.25088 444.83701 113.5 447.5 C 55.097502 403.95908 17.21875 334.40036 17.21875 256 C 17.21875 124.18483 124.18483 17.21875 256 17.21875 z M 156.90625 110.59375 L 268.21875 110.59375 C 308.14447 110.59403 337.03008 116.6514 354.875 128.71875 C 372.84783 140.78665 381.84349 160.08201 381.84375 186.65625 C 381.84366 191.24813 381.49012 195.60101 380.78125 199.75 C 370.76385 206.42687 364.02124 218.3048 365.5 230.40625 C 364.92773 230.98813 364.31965 231.53618 363.71875 232.09375 C 347.34682 230.14336 331.327 243.46065 328.125 259.0625 C 322.74675 255.47081 317.97586 261.89273 314.65625 265.34375 C 312.03408 269.07308 309.97943 273.11233 305.75 275.1875 C 304.83046 276.20072 303.87944 277.19131 302.9375 278.1875 C 295.81035 274.31199 286.35174 272.37509 274.5625 272.375 L 231.0625 272.375 L 231.0625 347.65625 L 233.625 347.65625 C 231.85581 349.79083 230.24044 352.02942 228.90625 354.28125 C 228.05965 357.54672 229.56176 360.94082 231.8125 363.28125 C 212.94628 361.23268 195.30359 379.42842 197.1875 398.125 L 156.90625 398.125 L 156.90625 110.59375 z M 469.4375 130.25 C 475.11006 130.25005 480.3175 132.63008 485.0625 137.375 L 487.78125 140.09375 L 465.375 162.5 C 467.85452 164.51574 470.3598 165.39261 472.875 165.125 C 475.39019 164.85745 477.90887 163.46612 480.40625 160.96875 C 482.42195 158.95305 484.17123 156.59986 485.6875 153.90625 C 487.20373 151.17703 488.4832 148.09908 489.5 144.65625 L 496.875 152.03125 C 495.46575 155.15298 493.83731 158.05644 492 160.75 C 490.18047 163.46144 488.14044 165.95332 485.875 168.21875 C 480.45215 173.6416 474.85551 176.48244 469.09375 176.75 C 463.332 176.98191 457.97689 174.60189 453 169.625 C 448.11234 164.73733 445.73231 159.43145 445.875 153.6875 C 446.03556 147.92578 448.70192 142.45439 453.875 137.28125 C 458.58431 132.572 463.78278 130.23222 469.4375 130.25 z M 465.21875 141.25 C 463.36524 141.38271 461.68592 142.22037 460.1875 143.71875 C 458.33232 145.57398 457.35704 147.6006 457.25 149.8125 C 457.12515 152.00664 457.91695 154.22116 459.59375 156.46875 L 472.03125 144.03125 C 470.21173 142.21179 468.20751 141.28572 466.03125 141.25 C 465.75922 141.241 465.48354 141.231 465.21875 141.25 z M 436.96875 155.65625 L 436.09375 184.03125 L 468.09375 184.46875 L 456.46875 196.0625 L 432.28125 195.28125 L 444.78125 207.75 L 435.21875 217.34375 L 393.5625 175.71875 L 403.15625 166.125 L 425.8125 188.78125 L 425.84375 166.78125 L 436.96875 155.65625 z M 231.0625 161.0625 L 231.0625 221.90625 L 272.0625 221.90625 C 283.74484 221.90642 292.62226 219.35409 298.65625 214.21875 C 304.68989 209.08378 307.68731 201.51376 307.6875 191.5 C 307.68731 181.61502 304.68989 174.10414 298.65625 168.96875 C 292.62226 163.70544 283.74484 161.06274 272.0625 161.0625 L 231.0625 161.0625 z M 482.84375 181.375 C 490.57129 204.85786 494.78125 229.94025 494.78125 256 C 494.78125 387.81517 387.81517 494.78125 256 494.78125 C 229.46267 494.78125 203.9464 490.4079 180.09375 482.40625 C 181.48242 479.5443 182.5331 476.48835 183.0625 473.1875 C 205.9693 480.87048 230.49685 485.0625 256 485.0625 C 382.56621 485.0625 485.0625 382.56621 485.0625 256 C 485.0625 232.54608 481.5407 209.92594 475 188.625 C 475.5209 188.14499 476.0438 187.68173 476.59375 187.25 C 478.57147 185.21184 480.68235 183.27661 482.84375 181.375 z M 397.34375 202.1875 C 403.03414 202.06269 408.32663 204.4517 413.25 209.375 C 418.17334 214.29841 420.59359 219.59089 420.46875 225.28125 C 420.3617 230.95386 417.71774 236.37601 412.5625 241.53125 C 407.38939 246.70437 401.95824 249.35731 396.25 249.5 C 390.5596 249.62488 385.23588 247.23588 380.3125 242.3125 C 375.38916 237.38916 373.00014 232.06543 373.125 226.375 C 373.26772 220.6668 375.92066 215.23564 381.09375 210.0625 C 386.24902 204.90729 391.67118 202.29458 397.34375 202.1875 z M 393.21875 214.3125 C 391.29451 214.43679 389.53542 215.30837 387.9375 216.90625 C 385.81475 219.02904 384.96473 221.43589 385.375 224.09375 C 385.78529 226.71602 387.44055 229.44057 390.3125 232.3125 C 393.18447 235.18449 395.92243 236.85315 398.5625 237.28125 C 401.20255 237.67371 403.59599 236.81028 405.71875 234.6875 C 407.80582 232.60046 408.62902 230.24725 408.21875 227.625 C 407.79062 224.98496 406.1532 222.21575 403.28125 219.34375 C 400.40928 216.47183 397.65348 214.84782 395.03125 214.4375 C 394.70124 214.384 394.38387 214.32671 394.0625 214.3125 C 393.7813 214.3001 393.49364 214.2947 393.21875 214.3125 z M 359.65625 239.84375 C 365.34664 239.71894 370.67038 242.10795 375.59375 247.03125 C 380.51709 251.95466 382.90609 257.27838 382.78125 262.96875 C 382.6742 268.64135 380.06148 274.06352 374.90625 279.21875 C 369.73314 284.39187 364.27074 287.04481 358.5625 287.1875 C 352.87209 287.31239 347.57963 284.89213 342.65625 279.96875 C 337.73291 275.04541 335.31265 269.75293 335.4375 264.0625 C 335.58023 258.35429 338.26441 252.92315 343.4375 247.75 C 348.59276 242.5948 353.98367 239.95084 359.65625 239.84375 z M 355.53125 252 C 353.61299 252.12429 351.87917 252.99587 350.28125 254.59375 C 348.15849 256.71655 347.30848 259.09214 347.71875 261.75 C 348.12904 264.37227 349.75305 267.12808 352.625 270 C 355.49697 272.872 358.26618 274.50941 360.90625 274.9375 C 363.5463 275.32996 365.90848 274.46654 368.03125 272.34375 C 370.11831 270.25671 370.97277 267.9035 370.5625 265.28125 C 370.13437 262.64121 368.46571 259.90325 365.59375 257.03125 C 362.72179 254.15933 359.99723 252.50408 357.375 252.09375 C 357.04499 252.04025 356.69637 252.0142 356.375 252 C 356.0938 251.9876 355.80529 251.9822 355.53125 252 z M 356 260.15625 C 358.75704 260.906 362.91671 263.85463 361.875 266.75 C 359.10256 266.6504 355.64581 262.36904 356 260.15625 z M 324.53125 267.0625 L 333.21875 275.6875 C 331.9879 276.1335 330.89178 276.71503 329.875 277.375 C 328.85822 277.99938 327.90091 278.72414 327.0625 279.5625 C 324.60083 282.02422 323.50027 284.69957 323.75 287.625 C 323.99974 290.51483 325.61919 293.43172 328.5625 296.375 L 342.34375 310.1875 L 332.78125 319.78125 L 302.8125 289.8125 L 312.375 280.21875 L 317.3125 285.15625 C 316.58115 281.96324 316.55431 279.10456 317.25 276.625 C 317.94571 274.10985 319.42647 271.76108 321.65625 269.53125 C 321.97735 269.21021 322.33974 268.87024 322.75 268.53125 C 323.14247 268.17456 323.72854 267.6869 324.53125 267.0625 z M 385.6875 278.6875 C 390.9464 289.32399 393.59353 301.64269 393.59375 315.6875 C 393.59347 343.41745 384.21184 364.07935 365.46875 377.6875 C 346.72517 391.29569 318.22553 398.125 279.96875 398.125 L 262.34375 398.125 C 262.88085 397.0467 263.39984 395.97988 263.875 394.90625 C 268.50096 398.13209 272.60159 391.0212 275.5 388.125 C 278.65844 383.877 286.26079 381.06187 285.1875 374.78125 C 279.99165 366.31584 268.87136 362.37759 265.71875 352.59375 C 267.54158 349.35012 273.05851 346.89853 274.96875 351.8125 C 281.22564 357.99114 287.33635 364.20381 293.5 370.4375 C 302.04681 361.62183 310.68533 352.73699 320.3125 345.15625 C 325.06414 339.69399 327.28822 332.18529 326.40625 325 C 328.68227 329.01259 334.9753 331.39087 337.65625 326.21875 C 342.68519 321.0212 348.00991 315.91137 353.1875 310.75 C 348.0029 300.92908 335.61555 296.79815 332.125 286.0625 C 332.87504 284.41608 335.66448 282.35648 336.3125 285.15625 C 346.47968 296.82546 365.98842 298.47834 377.4375 287.84375 C 380.66648 285.34871 383.47168 282.20129 385.6875 278.6875 z M 292.90625 304.0625 C 293.8459 304.0196 294.81579 304.04925 295.8125 304.15625 C 301.11045 304.70929 306.06738 307.31745 310.6875 311.9375 C 315.3076 316.55767 317.92915 321.52799 318.5 326.84375 C 319.05296 332.14175 317.47374 336.62001 313.78125 340.3125 C 311.69415 342.39961 309.426 343.84014 307 344.625 C 304.55615 345.39206 301.81817 345.55313 298.75 345.125 L 303.0625 349.46875 L 293.5 359.0625 L 251.875 317.40625 L 261.4375 307.84375 L 277.5 323.90625 C 277.0719 320.8381 277.24638 318.0823 278.03125 315.65625 C 278.79831 313.21245 280.22543 310.93088 282.3125 308.84375 C 285.31267 305.84363 288.83445 304.24823 292.90625 304.0625 z M 290.75 316.84375 C 288.92046 316.98759 287.2573 317.83648 285.71875 319.375 C 283.66735 321.42644 282.83972 323.75281 283.25 326.375 C 283.66028 328.96158 285.28873 331.66375 288.125 334.5 C 290.96128 337.33631 293.67686 338.97816 296.28125 339.40625 C 298.88563 339.79872 301.1986 338.98892 303.25 336.9375 C 305.30139 334.88612 306.1156 332.56875 305.6875 330 C 305.2772 327.4135 303.6666 324.69792 300.8125 321.84375 C 297.95836 318.98968 295.21154 317.34783 292.625 316.9375 C 291.98282 316.83048 291.35985 316.79575 290.75 316.84375 z M 258.1875 333.40625 L 266.875 342.0625 C 265.64415 342.5085 264.51678 343.05878 263.5 343.71875 C 262.48321 344.34314 261.55716 345.06789 260.71875 345.90625 C 258.25707 348.36797 257.15652 351.07457 257.40625 354 C 257.65598 356.88984 259.24419 359.80672 262.1875 362.75 L 276 376.5625 L 266.40625 386.125 L 236.4375 356.15625 L 246.03125 346.59375 L 250.9375 351.5 C 250.20615 348.307 250.21051 345.47956 250.90625 343 C 251.60196 340.48485 253.05147 338.10484 255.28125 335.875 C 255.60235 335.55396 255.96473 335.21399 256.375 334.875 C 256.76746 334.51831 257.38479 334.03065 258.1875 333.40625 z M 227.4375 371.1875 C 227.78723 371.1702 228.14658 371.1865 228.5 371.1875 C 234.17255 371.18756 239.38 373.53632 244.125 378.28125 L 246.84375 381.03125 L 224.46875 403.40625 C 226.94826 405.422 229.45356 406.29885 231.96875 406.03125 C 234.48394 405.7637 236.97137 404.37237 239.46875 401.875 C 241.48445 399.85929 243.26499 397.50611 244.78125 394.8125 C 246.29748 392.08328 247.5457 389.00533 248.5625 385.5625 L 255.96875 392.9375 C 254.5595 396.05923 252.93106 398.99395 251.09375 401.6875 C 249.27422 404.39894 247.23419 406.89082 244.96875 409.15625 C 239.5459 414.5791 233.94926 417.41994 228.1875 417.6875 C 222.42575 417.91941 217.03938 415.5394 212.0625 410.5625 C 207.17483 405.67484 204.82606 400.36895 204.96875 394.625 C 205.12931 388.86328 207.79566 383.39189 212.96875 378.21875 C 217.38372 373.80383 222.19159 371.44781 227.4375 371.1875 z M 224.28125 382.15625 C 222.43169 382.29031 220.77967 383.12663 219.28125 384.625 C 217.42608 386.48023 216.45079 388.50685 216.34375 390.71875 C 216.21889 392.9129 216.97946 395.15866 218.65625 397.40625 L 231.09375 384.9375 C 229.27425 383.11803 227.27002 382.19196 225.09375 382.15625 C 224.82172 382.14725 224.54547 382.13715 224.28125 382.15625 z M 188.6875 407.375 C 189.16886 407.358 189.63668 407.36395 190.125 407.40625 C 194.0494 407.72739 198.04445 409.91952 202.09375 413.96875 L 220.34375 432.21875 L 210.71875 441.84375 L 207.75 438.875 L 196.78125 427.9375 C 194.15902 425.31532 192.29349 423.575 191.1875 422.71875 C 190.09937 421.84471 189.1867 421.30343 188.4375 421.125 C 187.43855 420.87531 186.44985 420.91557 185.46875 421.21875 C 184.4698 421.50421 183.57056 422.05449 182.75 422.875 C 180.75212 424.87293 179.96473 427.21271 180.375 429.90625 C 180.76745 432.58203 182.33324 435.27078 185.0625 438 L 199.78125 452.75 L 190.21875 462.34375 L 148.59375 420.6875 L 158.15625 411.125 L 174.21875 427.1875 C 173.91551 423.9945 174.16605 421.16264 174.96875 418.71875 C 175.75364 416.25712 177.13155 414.05601 179.09375 412.09375 C 182.1218 409.06575 185.31801 407.49405 188.6875 407.375 z M 140.25 434.90625 L 148.71875 443.375 C 145.54353 444.588 142.64906 445.9749 140.0625 447.5625 C 137.47596 449.1501 135.26144 450.86365 133.40625 452.71875 C 130.94458 455.18055 129.46824 457.36365 128.96875 459.21875 C 128.4693 461.07405 128.91665 462.698 130.34375 464.125 C 131.41407 465.1953 132.67112 465.64715 134.0625 465.46875 C 135.45389 465.25475 137.39106 464.31525 139.90625 462.65625 L 145.1875 459.15625 C 150.52114 455.60655 155.02623 453.8035 158.71875 453.75 C 162.41126 453.697 165.92764 455.3339 169.28125 458.6875 C 173.68729 463.0935 175.65126 467.68815 175.1875 472.46875 C 174.72367 477.21375 171.8068 482.28695 166.4375 487.65625 C 163.90445 490.18925 161.12624 492.4932 158.09375 494.5625 C 155.06123 496.6317 151.80879 498.4571 148.3125 500.0625 L 139.625 491.375 C 143.53159 490.1799 146.99432 488.7393 150.0625 487.0625 C 153.13068 485.35 155.78804 483.3994 158 481.1875 C 160.24761 478.9399 161.58528 476.8194 162.03125 474.875 C 162.4772 472.9306 162.01635 471.2664 160.625 469.875 C 159.37629 468.6263 157.9984 468.07605 156.5 468.21875 C 155.01941 468.34365 152.8049 469.3592 149.84375 471.25 L 144.96875 474.34375 C 140.11674 477.48335 135.82195 479.04905 132.09375 479.03125 C 128.3834 478.99525 124.95649 477.39395 121.78125 474.21875 C 117.80335 470.24085 116.00941 465.8968 116.4375 461.1875 C 116.86564 456.4782 119.49619 451.72265 124.3125 446.90625 C 126.50663 444.71225 128.93587 442.6051 131.59375 440.625 C 134.23383 438.62716 137.11048 436.72582 140.25 434.90625 z "
       transform="translate(0,540.36218)"
       id="path2986" />
  </g>
</svg>
