<?xml version="1.0" encoding="UTF-8" standalone="no"?>
<!-- Created with Inkscape (http://www.inkscape.org/) -->

<svg
   xmlns:dc="http://purl.org/dc/elements/1.1/"
   xmlns:cc="http://creativecommons.org/ns#"
   xmlns:rdf="http://www.w3.org/1999/02/22-rdf-syntax-ns#"
   xmlns:svg="http://www.w3.org/2000/svg"
   xmlns="http://www.w3.org/2000/svg"
   xmlns:sodipodi="http://sodipodi.sourceforge.net/DTD/sodipodi-0.dtd"
   xmlns:inkscape="http://www.inkscape.org/namespaces/inkscape"
   width="512"
   height="512"
   id="svg2"
   version="1.1"
   inkscape:version="0.48.5 r10040"
   sodipodi:docname="notif.svg">
  <defs
     id="defs4">
    <inkscape:path-effect
       is_visible="true"
       id="path-effect3805"
       effect="spiro" />
    <inkscape:path-effect
       is_visible="true"
       id="path-effect3785"
       effect="spiro" />
    <inkscape:path-effect
       is_visible="true"
       id="path-effect3781"
       effect="spiro" />
    <inkscape:path-effect
       effect="spiro"
       id="path-effect3009"
       is_visible="true" />
    <inkscape:path-effect
       effect="spiro"
       id="path-effect3005"
       is_visible="true" />
    <inkscape:path-effect
       effect="spiro"
       id="path-effect3001"
       is_visible="true" />
    <inkscape:path-effect
       effect="spiro"
       id="path-effect2997"
       is_visible="true" />
  </defs>
  <sodipodi:namedview
     id="base"
     pagecolor="#000000"
     bordercolor="#666666"
     borderopacity="1.0"
     inkscape:pageopacity="0"
     inkscape:pageshadow="2"
     inkscape:zoom="1.4"
     inkscape:cx="229.42145"
     inkscape:cy="366.06047"
     inkscape:document-units="px"
     inkscape:current-layer="layer1"
     showgrid="false"
     inkscape:window-width="1279"
     inkscape:window-height="1379"
     inkscape:window-x="2560"
     inkscape:window-y="27"
     inkscape:window-maximized="0"
     showguides="true"
     inkscape:guide-bbox="true" />
  <metadata
     id="metadata7">
    <rdf:RDF>
      <cc:Work
         rdf:about="">
        <dc:format>image/svg+xml</dc:format>
        <dc:type
           rdf:resource="http://purl.org/dc/dcmitype/StillImage" />
        <dc:title />
      </cc:Work>
    </rdf:RDF>
  </metadata>
  <g
     inkscape:label="Layer 1"
     inkscape:groupmode="layer"
     id="layer1"
     transform="translate(0,-540.36218)">
    <path
       style="fill:#ffffff;fill-opacity:1;stroke:none"
       d="M 256 5.71875 C 117.77101 5.71875 5.71875 117.77101 5.71875 256 C 5.71875 394.22898 117.77101 506.28125 256 506.28125 C 394.22898 506.28125 506.28125 394.22898 506.28125 256 C 506.28125 117.77101 394.22898 5.71875 256 5.71875 z M 147.84375 81.34375 C 161.26961 81.20296 174.60495 84.16896 186.75 89.90625 C 212.77228 102.19908 230.75844 125.99517 239.71875 151.875 C 248.62016 177.5847 248.66135 203.93323 248.40625 228.34375 L 246.53125 407.1875 C 246.46768 413.27079 246.42876 420.08395 245.09375 427.46875 C 243.75546 434.87171 241.17332 442.40455 236.6875 449.3125 C 232.18954 456.23929 226.02977 462.11975 218.53125 466.15625 C 211.03354 470.19255 202.60538 472.1853 194.0625 471.875 L 195.09375 443.96875 C 198.56294 444.09477 202.22634 443.25512 205.3125 441.59375 C 208.39784 439.93286 211.23294 437.27931 213.28125 434.125 C 215.34168 430.952 216.85627 426.95653 217.65625 422.53125 C 218.45954 418.08777 218.59425 412.84229 218.65625 406.90625 L 220.5 228.0625 C 220.75074 204.06882 220.27976 181.00181 213.34375 160.96875 C 206.46667 141.10585 192.59035 123.50844 174.84375 115.125 C 163.79178 109.90408 150.95866 108.06522 139.03125 110.0625 C 127.12381 112.05643 115.67423 118.00361 107.375 126.59375 C 99.091143 135.16797 93.607112 146.76718 92.40625 158.5 C 91.207835 170.20892 94.268338 182.63056 100.78125 192.28125 C 104.70428 198.0943 109.88228 202.9926 115.6875 206.25 C 121.46082 209.48952 128.07915 211.17944 134.34375 210.96875 C 140.55999 210.75969 146.82117 208.59017 151.46875 205 C 156.06758 201.44749 159.51715 196.09985 160.65625 190.75 C 162.04107 184.24611 159.99975 176.34763 155.65625 171.3125 C 151.31275 166.27739 143.82418 163.14672 137.1875 163.5625 L 135.4375 135.6875 C 151.18557 134.70088 166.47462 141.14601 176.78125 153.09375 C 187.08787 165.0415 191.22353 181.09826 187.9375 196.53125 C 185.31159 208.86396 178.23975 219.59412 168.53125 227.09375 C 158.87152 234.5557 147.165 238.44514 135.3125 238.84375 C 123.50836 239.24074 112.02441 236.20109 102.03125 230.59375 C 92.069987 225.0043 83.815273 217.04761 77.625 207.875 C 67.281944 192.5489 62.786619 173.92319 64.65625 155.65625 C 66.523433 137.41325 74.659611 120.31515 87.3125 107.21875 C 99.950019 94.13826 116.59504 85.51378 134.40625 82.53125 C 138.85406 81.78646 143.36845 81.39075 147.84375 81.34375 z M 361.65625 81.34375 C 362.49453 81.32836 363.31713 81.334951 364.15625 81.34375 C 368.63154 81.39075 373.14594 81.78646 377.59375 82.53125 C 395.40496 85.51378 412.04998 94.13826 424.6875 107.21875 C 437.34039 120.31515 445.47657 137.41325 447.34375 155.65625 C 449.21339 173.92319 444.71805 192.5489 434.375 207.875 C 428.18473 217.04761 419.93001 225.0043 409.96875 230.59375 C 399.97559 236.20109 388.49164 239.24074 376.6875 238.84375 C 364.835 238.44514 353.12849 234.5557 343.46875 227.09375 C 333.76025 219.59412 326.68842 208.86396 324.0625 196.53125 C 320.77648 181.09826 324.91213 165.0415 335.21875 153.09375 C 345.52537 141.14601 360.81444 134.70088 376.5625 135.6875 L 374.8125 163.5625 C 368.17582 163.14672 360.68725 166.27739 356.34375 171.3125 C 352.00025 176.34763 349.95892 184.24611 351.34375 190.75 C 352.48284 196.09985 355.93243 201.44749 360.53125 205 C 365.17883 208.59017 371.44001 210.75969 377.65625 210.96875 C 383.92085 211.17944 390.53917 209.48952 396.3125 206.25 C 402.11771 202.9926 407.29573 198.0943 411.21875 192.28125 C 417.73167 182.63056 420.79217 170.20892 419.59375 158.5 C 418.39289 146.76718 412.90886 135.16797 404.625 126.59375 C 396.32577 118.00361 384.87618 112.05643 372.96875 110.0625 C 361.04133 108.06522 348.20823 109.90408 337.15625 115.125 C 319.40965 123.50844 305.53333 141.10585 298.65625 160.96875 C 291.72024 181.00181 291.24926 204.06882 291.5 228.0625 L 293.34375 406.90625 C 293.40575 412.84229 293.54046 418.08777 294.34375 422.53125 C 295.14374 426.95653 296.65832 430.952 298.71875 434.125 C 300.76706 437.27931 303.60215 439.93286 306.6875 441.59375 C 309.77365 443.25512 313.43706 444.09477 316.90625 443.96875 L 317.9375 471.875 C 309.39462 472.1853 300.96646 470.19255 293.46875 466.15625 C 285.97023 462.11975 279.81047 456.23929 275.3125 449.3125 C 270.82668 442.40455 268.24455 434.87171 266.90625 427.46875 C 265.57125 420.08395 265.53232 413.27079 265.46875 407.1875 L 263.59375 228.34375 C 263.33865 203.93323 263.37984 177.5847 272.28125 151.875 C 281.24157 125.99517 299.22773 102.19908 325.25 89.90625 C 336.63598 84.527541 349.08205 81.574597 361.65625 81.34375 z "
       transform="translate(0,540.36218)"
       id="path2986" />
  </g>
</svg>
