<?xml version="1.0" encoding="UTF-8" standalone="no"?>
<!-- Created with Inkscape (http://www.inkscape.org/) -->

<svg
   xmlns:dc="http://purl.org/dc/elements/1.1/"
   xmlns:cc="http://creativecommons.org/ns#"
   xmlns:rdf="http://www.w3.org/1999/02/22-rdf-syntax-ns#"
   xmlns:svg="http://www.w3.org/2000/svg"
   xmlns="http://www.w3.org/2000/svg"
   xmlns:sodipodi="http://sodipodi.sourceforge.net/DTD/sodipodi-0.dtd"
   xmlns:inkscape="http://www.inkscape.org/namespaces/inkscape"
   width="256"
   height="256"
   id="svg2"
   version="1.1"
   inkscape:version="0.48.5 r10040"
   sodipodi:docname="android_controls.svg">
  <defs
     id="defs4">
    <inkscape:perspective
       sodipodi:type="inkscape:persp3d"
       inkscape:vp_x="-91.400867 : 150.39097 : 1"
       inkscape:vp_y="0 : 727.07979 : 0"
       inkscape:vp_z="305.99309 : 154.06335 : 1"
       inkscape:persp3d-origin="70.10249 : -61.483266 : 1"
       id="perspective3001" />
  </defs>
  <sodipodi:namedview
     id="base"
     pagecolor="#5c5c5c"
     bordercolor="#666666"
     borderopacity="1.0"
     inkscape:pageopacity="0.50196078"
     inkscape:pageshadow="2"
     inkscape:zoom="0.98994949"
     inkscape:cx="147.72567"
     inkscape:cy="55.631244"
     inkscape:document-units="px"
     inkscape:current-layer="layer1"
     showgrid="false"
     inkscape:window-width="1240"
     inkscape:window-height="1049"
     inkscape:window-x="3030"
     inkscape:window-y="129"
     inkscape:window-maximized="0"
     fit-margin-top="0"
     fit-margin-left="0"
     fit-margin-right="0"
     fit-margin-bottom="0" />
  <metadata
     id="metadata7">
    <rdf:RDF>
      <cc:Work
         rdf:about="">
        <dc:format>image/svg+xml</dc:format>
        <dc:type
           rdf:resource="http://purl.org/dc/dcmitype/StillImage" />
        <dc:title />
      </cc:Work>
    </rdf:RDF>
  </metadata>
  <g
     inkscape:label="Layer 1"
     inkscape:groupmode="layer"
     id="layer1"
     transform="translate(-16.353555,103.04721)">
    <g
       id="0mine"
       inkscape:label="#g3804"
       transform="matrix(1.5861472,0,0,1.5861472,-0.49421761,-101.69331)"
       style="opacity:0.33000004;stroke:#ffffff;stroke-opacity:1">
      <rect
         transform="matrix(0.70710678,-0.70710678,0.70710678,0.70710678,0,0)"
         y="105.65108"
         x="-52.897205"
         height="55.441986"
         width="5.0401802"
         id="rect3761"
         style="fill:none;stroke:#ffffff;stroke-width:3;stroke-linejoin:round;stroke-miterlimit:4;stroke-opacity:1;stroke-dasharray:none" />
      <path
         inkscape:connector-curvature="0"
         id="path2985"
         d="m 32.6609,103.90491 c -11.5659,11.56591 -16.093067,27.4749 -13.68913,42.47864 0.310173,-1.29423 0.573835,-2.60125 0.9526,-3.88094 0.697104,-2.35524 1.522563,-4.67596 2.452043,-6.96804 0.929481,-2.29209 1.96054,-4.5455 3.122397,-6.75637 1.161848,-2.21087 2.451437,-4.38013 3.845653,-6.49175 1.394217,-2.11161 2.889414,-4.17991 4.515998,-6.17422 1.626585,-1.99431 3.380319,-3.90953 5.239272,-5.76849 1.858953,-1.85896 3.774172,-3.61268 5.768489,-5.23927 1.994308,-1.62658 4.080241,-3.13942 6.191855,-4.53364 2.111615,-1.394205 4.263241,-2.666166 6.474111,-3.828014 2.210878,-1.161849 4.481918,-2.210543 6.774009,-3.140032 2.292084,-0.92948 4.59516,-1.737296 6.950407,-2.434408 1.279689,-0.378757 2.586705,-0.64242 3.88094,-0.952592 C 60.135798,87.811847 44.226808,92.339014 32.6609,103.90491 z"
         style="fill:none;stroke:#ffffff;stroke-width:3;stroke-linejoin:round;stroke-miterlimit:4;stroke-opacity:1;stroke-dasharray:none" />
    </g>
    <g
       sodipodi:type="inkscape:box3d"
       style="opacity:0.33000004;fill:none;stroke:#ffffff;stroke-width:3;stroke-linejoin:round;stroke-miterlimit:4;stroke-opacity:1;stroke-dasharray:none"
       id="0place"
       inkscape:perspectiveID="#perspective3001"
       inkscape:corner0="-0.31874444 : 0.24538352 : 0 : 1"
       inkscape:corner7="-0.46104104 : 0.1885311 : 0.25 : 1"
       inkscape:label="#g3017">
      <path
         sodipodi:type="inkscape:box3dside"
         id="path3027"
         style="fill:none;stroke:#ffffff;stroke-width:4.75844145;stroke-linejoin:round;stroke-miterlimit:4;stroke-opacity:1;stroke-dasharray:none"
         inkscape:box3dsidetype="13"
         d="m 162.0199,112.35481 62.59077,28.98768 30.96992,-45.139566 -50.52021,-14.308436 z" />
      <path
         sodipodi:type="inkscape:box3dside"
         id="path3019"
         style="fill:none;stroke:#ffffff;stroke-width:4.75844145;stroke-linejoin:round;stroke-miterlimit:4;stroke-opacity:1;stroke-dasharray:none"
         inkscape:box3dsidetype="6"
         d="m 162.0199,51.678245 0,60.676565 43.04048,-30.460322 0,-44.387649 z" />
      <path
         sodipodi:type="inkscape:box3dside"
         id="path3029"
         style="fill:none;stroke:#ffffff;stroke-width:4.75844145;stroke-linejoin:round;stroke-miterlimit:4;stroke-opacity:1;stroke-dasharray:none"
         inkscape:box3dsidetype="11"
         d="m 205.06038,37.506839 50.52021,6.302681 0,52.393404 -50.52021,-14.308436 z" />
      <path
         sodipodi:type="inkscape:box3dside"
         id="path3021"
         style="fill:none;stroke:#ffffff;stroke-width:4.75844145;stroke-linejoin:round;stroke-miterlimit:4;stroke-opacity:1;stroke-dasharray:none"
         inkscape:box3dsidetype="5"
         d="M 162.0199,51.678245 224.61067,64.646024 255.58059,43.80952 205.06038,37.506839 z" />
      <path
         sodipodi:type="inkscape:box3dside"
         id="path3025"
         style="fill:none;stroke:#ffffff;stroke-width:4.75844145;stroke-linejoin:round;stroke-miterlimit:4;stroke-opacity:1;stroke-dasharray:none"
         inkscape:box3dsidetype="14"
         d="m 224.61067,64.646024 0,76.696466 30.96992,-45.139566 0,-52.393404 z" />
      <path
         sodipodi:type="inkscape:box3dside"
         id="path3023"
         style="fill:none;stroke:#ffffff;stroke-width:4.75844145;stroke-linejoin:round;stroke-miterlimit:4;stroke-opacity:1;stroke-dasharray:none"
         inkscape:box3dsidetype="3"
         d="m 162.0199,51.678245 62.59077,12.967779 0,76.696466 -62.59077,-28.98768 z" />
    </g>
    <g
       id="0move"
       inkscape:label="#g3837"
       transform="matrix(1.5861472,0,0,1.5861472,-13.626201,-99.673007)"
       style="opacity:0.33000004;stroke:#ffffff;stroke-opacity:1">
      <path
         inkscape:connector-curvature="0"
         id="rect3415"
         d="m 138.76947,11.061513 -31.50542,34.369054 16.74393,0 0,16.743926 29.30187,0 0,-16.743926 16.74393,0 -31.28431,-34.369054 z"
         style="fill:none;stroke:#ffffff;stroke-width:3;stroke-linecap:round;stroke-linejoin:round;stroke-miterlimit:4;stroke-opacity:1;stroke-dasharray:none;stroke-dashoffset:0" />
      <path
         sodipodi:type="arc"
         style="opacity:0;fill:none;stroke:#ffffff;stroke-width:0.55764699;stroke-linecap:round;stroke-linejoin:round;stroke-miterlimit:4;stroke-opacity:1;stroke-dasharray:none;stroke-dashoffset:0"
         id="path4195"
         sodipodi:cx="30.582369"
         sodipodi:cy="506.11945"
         sodipodi:rx="5.833631"
         sodipodi:ry="5.833631"
         d="m 36.416,506.11945 c 0,3.22182 -2.611806,5.83363 -5.833631,5.83363 -3.221826,0 -5.833631,-2.61181 -5.833631,-5.83363 0,-3.22183 2.611805,-5.83364 5.833631,-5.83364 3.221825,0 5.833631,2.61181 5.833631,5.83364 z"
         transform="matrix(5.3797474,0,0,5.3797474,-26.011655,-2681.861)" />
    </g>
    <g
       id="0look"
       inkscape:label="#g3808"
       transform="matrix(1.5861472,0,0,1.5861472,-6.5551329,-103.71362)"
       style="opacity:0.33000004;stroke:#ffffff;stroke-opacity:1">
      <path
         transform="matrix(0.55118711,0,0,0.55118711,-54.595556,-118.22281)"
         d="m 227.14286,290.21933 c 0,15.38508 -12.47206,27.85714 -27.85714,27.85714 -15.38507,0 -27.85714,-12.47206 -27.85714,-27.85714 0,-15.38508 12.47207,-27.85714 27.85714,-27.85714 15.38508,0 27.85714,12.47206 27.85714,27.85714 z"
         sodipodi:ry="27.857143"
         sodipodi:rx="27.857143"
         sodipodi:cy="290.21933"
         sodipodi:cx="199.28572"
         id="path3795"
         style="fill:none;stroke:#ffffff;stroke-width:5.44279766;stroke-linejoin:round;stroke-miterlimit:4;stroke-opacity:1;stroke-dasharray:none"
         sodipodi:type="arc" />
      <path
         inkscape:connector-curvature="0"
         id="path3799"
         d="m 55.248158,23.009049 c -15.299388,0 -28.880592,7.367964 -37.394603,18.740362 8.51451,11.366261 22.100048,18.72313 37.394603,18.72313 15.294555,0 28.880093,-7.356869 37.394603,-18.72313 C 84.12875,30.377013 70.547546,23.009049 55.248158,23.009049 z"
         style="fill:none;stroke:#ffffff;stroke-width:3;stroke-linejoin:round;stroke-miterlimit:4;stroke-opacity:1;stroke-dasharray:none" />
    </g>
  </g>
</svg>
