<?xml version="1.0" encoding="UTF-8" standalone="no"?>
<!-- Created with Inkscape (http://www.inkscape.org/) -->

<svg
   xmlns:dc="http://purl.org/dc/elements/1.1/"
   xmlns:cc="http://creativecommons.org/ns#"
   xmlns:rdf="http://www.w3.org/1999/02/22-rdf-syntax-ns#"
   xmlns:svg="http://www.w3.org/2000/svg"
   xmlns="http://www.w3.org/2000/svg"
   xmlns:sodipodi="http://sodipodi.sourceforge.net/DTD/sodipodi-0.dtd"
   xmlns:inkscape="http://www.inkscape.org/namespaces/inkscape"
   width="512"
   height="512"
   id="svg2"
   version="1.1"
   inkscape:version="0.48.5 r10040"
   sodipodi:docname="icon.svg">
  <defs
     id="defs4" />
  <sodipodi:namedview
     id="base"
     pagecolor="#ffffff"
     bordercolor="#666666"
     borderopacity="1.0"
     inkscape:pageopacity="0.0"
     inkscape:pageshadow="2"
     inkscape:zoom="1.4"
     inkscape:cx="339.1472"
     inkscape:cy="176.0732"
     inkscape:document-units="px"
     inkscape:current-layer="layer1"
     showgrid="false"
     inkscape:window-width="1196"
     inkscape:window-height="1109"
     inkscape:window-x="2877"
     inkscape:window-y="148"
     inkscape:window-maximized="0" />
  <metadata
     id="metadata7">
    <rdf:RDF>
      <cc:Work
         rdf:about="">
        <dc:format>image/svg+xml</dc:format>
        <dc:type
           rdf:resource="http://purl.org/dc/dcmitype/StillImage" />
        <dc:title />
      </cc:Work>
    </rdf:RDF>
  </metadata>
  <g
     inkscape:label="Layer 1"
     inkscape:groupmode="layer"
     id="layer1"
     transform="translate(0,-540.36218)">
    <path
       sodipodi:type="arc"
       style="fill:#000000;fill-opacity:1;stroke:none"
       id="path2986"
       sodipodi:cx="270.72089"
       sodipodi:cy="251.38065"
       sodipodi:rx="241.42645"
       sodipodi:ry="241.42645"
       d="m 512.14734,251.38065 c 0,133.33614 -108.09031,241.42645 -241.42645,241.42645 -133.33615,0 -241.426456,-108.09031 -241.426456,-241.42645 0,-133.33615 108.090306,-241.4264569 241.426456,-241.4264569 133.33614,0 241.42645,108.0903069 241.42645,241.4264569 z"
       transform="matrix(1.0603643,0,0,1.0603643,-31.062773,529.80711)" />
    <g
       style="font-size:394.38067627px;font-style:normal;font-weight:normal;line-height:125%;letter-spacing:0px;word-spacing:0px;fill:#ffffff;fill-opacity:1;stroke:none;font-family:Sans"
       id="text2987">
      <path
         d="m 272.06894,762.2731 c 11.68234,1.7e-4 20.54049,-2.56741 26.57448,-7.70275 6.03364,-5.13497 9.05054,-12.70934 9.05073,-22.7231 -1.9e-4,-9.88498 -3.01709,-17.39515 -9.05073,-22.53054 -6.03399,-5.26331 -14.89214,-7.89508 -26.57448,-7.89532 l -41.01713,0 0,60.85171 41.01713,0 m 2.5034,125.74735 c 14.89181,5e-5 26.06078,-3.14523 33.50695,-9.43586 7.57417,-6.29051 11.36135,-15.79056 11.36155,-28.50017 -2e-4,-12.45267 -3.72319,-21.76015 -11.16898,-27.92246 -7.44617,-6.29045 -18.67933,-9.43574 -33.69952,-9.43586 l -43.52053,0 0,75.29435 43.52053,0 m 68.93959,-103.40938 c 15.91877,4.62179 28.24315,13.159 36.97319,25.61163 8.72951,12.45289 13.09439,27.72999 13.09467,45.83135 -2.8e-4,27.72995 -9.37194,48.39897 -28.11503,62.00712 -18.74358,13.60819 -47.24372,20.41228 -85.5005,20.41228 l -123.05139,0 0,-287.50505 111.3047,0 c 39.92572,2.8e-4 68.81099,6.0341 86.65591,18.10145 17.97283,12.0679 26.95936,31.38894 26.95962,57.96318 -2.6e-4,13.99352 -3.27393,25.93277 -9.82101,35.81777 -6.54758,9.75698 -16.04762,17.0104 -28.50016,21.76027"
         style="font-variant:normal;font-weight:bold;font-stretch:normal;font-family:Webdings;-inkscape-font-specification:Webdings Bold"
         id="path3001" />
    </g>
    <path
       transform="matrix(0.96890975,0,0,0.96890975,-6.3041178,552.79701)"
       d="m 512.14734,251.38065 c 0,133.33614 -108.09031,241.42645 -241.42645,241.42645 -133.33615,0 -241.426456,-108.09031 -241.426456,-241.42645 0,-133.33615 108.090306,-241.4264569 241.426456,-241.4264569 133.33614,0 241.42645,108.0903069 241.42645,241.4264569 z"
       sodipodi:ry="241.42645"
       sodipodi:rx="241.42645"
       sodipodi:cy="251.38065"
       sodipodi:cx="270.72089"
       id="path2988"
       style="fill:none;stroke:#ffffff;stroke-width:10.02402973;stroke-miterlimit:4;stroke-opacity:1;stroke-dasharray:none"
       sodipodi:type="arc" />
    <g
       transform="matrix(0.70710678,-0.70710678,0.70710678,0.70710678,-3.5714286,-3.5714286)"
       style="font-size:77.49773407px;font-style:normal;font-weight:normal;line-height:125%;letter-spacing:0px;word-spacing:0px;fill:#000000;fill-opacity:1;stroke:none;font-family:Sans"
       id="text2999">
      <g
         id="g3104">
        <path
           inkscape:connector-curvature="0"
           id="path3004"
           d="m -629.4375,810.28125 c 5.57371,23.33113 11.12851,46.66722 16.5625,70.03125 9.85417,0 19.70833,0 29.5625,0 1.22281,-5.51126 2.49239,-11.01233 3.8125,-16.5 1.31421,5.49152 2.5973,10.99171 3.84375,16.5 9.84375,0 19.6875,0 29.53125,0 5.59537,-24.19062 11.35066,-48.34407 17.09375,-72.5 -10.125,0 -20.25,0 -30.375,0 -1.25593,3.17639 -2.54342,15.78699 -3.80468,12.55384 -2.232,-3.74302 -0.1104,-12.81758 -5.47657,-12.55384 -8.0625,0 -16.125,0 -24.1875,0 -0.96465,3.56566 -3.0355,15.23772 -3.57422,13.52692 -1.99959,-4.01194 -0.7784,-12.04335 -4.73828,-13.52692 -9.61458,0 -19.22917,0 -28.84375,0 0.19792,0.82292 0.39583,1.64583 0.59375,2.46875 z"
           style="font-variant:normal;font-weight:bold;font-stretch:normal;fill:#000000;font-family:Webdings;-inkscape-font-specification:Webdings Bold" />
        <path
           inkscape:connector-curvature="0"
           id="path3006"
           d="m -516,820.8125 c -17.43827,0.43729 -31.67811,18.19648 -28,35.4375 1.94668,14.9874 16.39425,26.35962 31.40625,25.15625 9.35411,0.26802 18.46539,-2.28705 27.03125,-5.8125 2.85193,-6.21964 -1.31838,-13.63507 2.75,-19.4375 3.26942,-16.47464 -9.12919,-34.43789 -26.3125,-35.21875 -2.29168,-0.0738 -4.58281,-0.1703 -6.875,-0.125 z"
           style="font-variant:normal;font-weight:bold;font-stretch:normal;fill:#000000;font-family:Webdings;-inkscape-font-specification:Webdings Bold" />
        <path
           inkscape:connector-curvature="0"
           id="path3008"
           d="m -461.0625,804.9375 c -9.03347,1.9863 -19.63259,-2.46549 -27.34375,4.21875 0,24.14583 0,48.29167 0,72.4375 9.52003,-3.72274 21.16835,2.27584 29.5625,-4.96875 0,-23.97917 0,-47.95833 0,-71.9375 -0.73958,0.0833 -1.47917,0.16667 -2.21875,0.25 z"
           style="font-variant:normal;font-weight:bold;font-stretch:normal;fill:#000000;font-family:Webdings;-inkscape-font-specification:Webdings Bold" />
        <path
           inkscape:connector-curvature="0"
           id="path3010"
           d="m -434.4375,804.9375 c -9.08035,1.9843 -19.61249,-2.46427 -27.3125,4.21875 0,24.14583 0,48.29167 0,72.4375 9.51147,-3.72158 21.14836,2.27382 29.53125,-4.96875 0,-23.97917 0,-47.95833 0,-71.9375 -0.73958,0.0833 -1.47917,0.16667 -2.21875,0.25 z"
           style="font-variant:normal;font-weight:bold;font-stretch:normal;fill:#000000;font-family:Webdings;-inkscape-font-specification:Webdings Bold" />
        <path
           inkscape:connector-curvature="0"
           id="path3012"
           d="m -417.375,804.9375 c -5.86368,1.35333 -14.95738,-1.98939 -17.40625,5.6875 -1.36126,7.73538 0.60879,15.42339 -0.53125,23.0625 0.64916,15.9606 -0.0285,31.92633 0.1875,47.90625 9.52003,-3.72274 21.16835,2.27584 29.5625,-4.96875 -0.3221,-21.17626 0.46904,-42.43517 0.0312,-63.5625 -1.19514,-5.21601 -6.66675,-8.53612 -11.84375,-8.125 z"
           style="font-variant:normal;font-weight:bold;font-stretch:normal;fill:#000000;font-family:Webdings;-inkscape-font-specification:Webdings Bold" />
        <path
           inkscape:connector-curvature="0"
           id="path3014"
           d="m -375.125,820.875 c -4.00785,0.19991 -7.70465,3.38662 -11.46875,1.03125 -5.61199,-0.90146 -11.43749,0.35332 -16.84375,0.9375 -8.16137,4.32841 -4.37652,14.76751 -4.90625,22.0625 -0.34738,12.23719 0.0813,24.48022 -0.1875,36.71875 9.34617,-3.77938 20.64529,2.12315 29.0625,-4.625 -1.67557,6.63716 3.66588,2.98897 7.75,3.21875 7.4672,0.115 15.9974,1.55329 22.15625,-3.75 -2.29031,-16.01732 4.26289,-34.59255 -6.28125,-48.5625 -4.75644,-5.34891 -12.18159,-7.59321 -19.28125,-7.03125 z"
           style="font-variant:normal;font-weight:bold;font-stretch:normal;fill:#000000;font-family:Webdings;-inkscape-font-specification:Webdings Bold" />
        <path
           inkscape:connector-curvature="0"
           id="path3016"
           d="m -332.25,821.03125 c -17.00653,1.02824 -27.11576,20.42708 -23.65625,36 0.0123,5.36889 4.60961,9.72767 5.5625,14.34375 -1.08045,4.60761 -0.88578,9.53443 -1.03125,14.21875 0.77894,6.5208 7.05466,10.49837 13.22619,10.46693 17.59929,4.81754 41.80875,-3.57445 43.05506,-24.21693 1.63787,-13.55574 -1.03285,-27.27204 0.53125,-40.875 0.1433,-4.16731 -1.74245,-10.92124 -7.15625,-9.03125 -6.24972,0.22824 -12.7464,-0.68087 -18.8125,0.84375 -3.65677,-1.60851 -7.74899,-1.88052 -11.71875,-1.75 z m 6.78125,25.84375 c 2.25176,1.45025 1.57751,7.18668 -0.40625,7.28125 -1.06472,-1.77527 -0.50137,-5.67062 0.40625,-7.28125 z"
           style="font-variant:normal;font-weight:bold;font-stretch:normal;fill:#000000;font-family:Webdings;-inkscape-font-specification:Webdings Bold" />
        <path
           inkscape:connector-curvature="0"
           id="path3018"
           d="m -275.90625,809.40625 c -6.43684,1.69212 -15.7848,-2.49782 -19.71875,5.03125 -1.85936,2.30083 0.72998,6.71076 -0.84375,8.0625 -5.57295,-0.41562 -7.73334,6.07348 -6.875,10.5625 -0.85472,5.6297 0.88162,12.98333 6.96875,14.78125 -0.90211,10.46221 -0.73126,24.06894 9.75,29.8125 11.17773,5.38774 23.88765,0.88869 35.6875,3.34375 -7.07901,-6.85189 1.11381,-18.46885 -6.59375,-24.8125 -2.22365,-2.7717 -6.93186,-1.09337 -8.90625,-2.125 0.0964,-2.34281 -2.77522,-7.2886 1.65625,-5.96875 6.54012,0.0712 13.55311,-4.95642 12.375,-12.125 1.24011,-6.48623 -2.59584,-14.75389 -10.0625,-14.34375 -2.05484,-0.28337 -5.33999,1.76121 -4.21875,-1.6875 0.21081,-5.19135 -3.21544,-11.24235 -9.21875,-10.53125 z"
           style="font-variant:normal;font-weight:bold;font-stretch:normal;fill:#000000;font-family:Webdings;-inkscape-font-specification:Webdings Bold" />
        <path
           inkscape:connector-curvature="0"
           id="path3020"
           d="m -234.6875,820.9375 c -17.96568,-0.74708 -32.78976,17.97624 -28.96875,35.40625 1.90626,14.75625 16.06432,26.2291 30.90625,25.28125 14.86264,0.59011 30.36381,-10.25236 31.4375,-25.75 2.82713,-16.22804 -9.28071,-34.34544 -26.375,-34.75 -2.32532,-0.20084 -4.66705,-0.26475 -7,-0.1875 z m 2.0625,25.75 c 2.65006,1.77178 1.32291,6.78914 0.46875,8.90625 -2.72882,-0.1874 -0.88439,-4.46183 -1.53125,-6.28125 0.10923,-0.89379 0.10927,-2.23844 1.0625,-2.625 z"
           style="font-variant:normal;font-weight:bold;font-stretch:normal;fill:#000000;font-family:Webdings;-inkscape-font-specification:Webdings Bold" />
        <path
           inkscape:connector-curvature="0"
           id="path3022"
           d="m -173.84375,820.84375 c -4.23762,0.36828 -8.08896,3.47166 -12.15625,0.96875 -5.43765,-0.60592 -11.0558,0.38777 -16.28125,1.03125 -8.16137,4.32841 -4.37652,14.76751 -4.90625,22.0625 -0.34738,12.23719 0.0813,24.48022 -0.1875,36.71875 9.34406,-3.75327 20.6203,2.07064 29.0625,-4.59375 -1.83732,6.8436 3.76155,2.81698 7.71875,3.1875 7.47697,0.10976 16.01947,1.56125 22.1875,-3.75 -2.32171,-16.17595 4.33932,-34.9946 -6.5,-48.84375 -4.86816,-5.12664 -11.96966,-7.22923 -18.9375,-6.78125 z"
           style="font-variant:normal;font-weight:bold;font-stretch:normal;fill:#000000;font-family:Webdings;-inkscape-font-specification:Webdings Bold" />
      </g>
    </g>
    <g
       transform="matrix(0.70710678,-0.70710678,0.70710678,0.70710678,0,0)"
       style="font-size:77.49773407px;font-style:normal;font-weight:normal;line-height:125%;letter-spacing:0px;word-spacing:0px;fill:#ffffff;fill-opacity:1;stroke:none;font-family:Sans"
       id="text2998">
      <path
         d="m -619.91889,810.75708 13.96321,0 9.7629,41.05715 9.68722,-41.05715 14.0389,0 9.68721,41.05715 9.7629,-41.05715 13.84969,0 -13.31992,56.49615 -16.80127,0 -10.25482,-42.94918 -10.14131,42.94918 -16.80127,0 -13.43344,-56.49615"
         style="font-variant:normal;font-weight:bold;font-stretch:normal;fill:#ffffff;font-family:Webdings;-inkscape-font-specification:Webdings Bold"
         id="path3005" />
      <path
         d="m -490.61725,845.94893 0,3.85975 -31.67266,0 c 0.32794,3.17863 1.47577,5.56259 3.44351,7.15189 1.96769,1.58931 4.71744,2.38397 8.24927,2.38396 2.85063,1e-5 5.76436,-0.41624 8.7412,-1.24874 3.00198,-0.85771 6.07969,-2.1443 9.23312,-3.85975 l 0,10.44403 c -3.20388,1.2109 -6.40773,2.11908 -9.61153,2.72453 -3.20388,0.63068 -6.40772,0.94601 -9.61154,0.94601 -7.66906,0 -13.63527,-1.94248 -17.89864,-5.82746 -4.23817,-3.9102 -6.35724,-9.38448 -6.35724,-16.42286 0,-6.91221 2.08123,-12.34865 6.24371,-16.30934 4.18769,-3.96062 9.93947,-5.94094 17.25536,-5.94099 6.65993,5e-5 11.98285,2.0056 15.96877,6.01667 4.01107,4.01115 6.01662,9.37191 6.01667,16.0823 m -13.92537,-4.50305 c -4e-5,-2.57313 -0.75685,-4.64176 -2.27044,-6.20587 -1.48844,-1.58927 -3.44354,-2.38393 -5.86531,-2.38396 -2.62365,3e-5 -4.75534,0.74423 -6.39508,2.2326 -1.63978,1.4632 -2.66148,3.58228 -3.06509,6.35723 l 17.59592,0"
         style="font-variant:normal;font-weight:bold;font-stretch:normal;fill:#ffffff;font-family:Webdings;-inkscape-font-specification:Webdings Bold"
         id="path3007" />
      <path
         d="m -480.40026,808.37312 13.54697,0 0,58.88011 -13.54697,0 0,-58.88011"
         style="font-variant:normal;font-weight:bold;font-stretch:normal;fill:#ffffff;font-family:Webdings;-inkscape-font-specification:Webdings Bold"
         id="path3009" />
      <path
         d="m -453.76041,808.37312 13.54696,0 0,58.88011 -13.54696,0 0,-58.88011"
         style="font-variant:normal;font-weight:bold;font-stretch:normal;fill:#ffffff;font-family:Webdings;-inkscape-font-specification:Webdings Bold"
         id="path3011" />
      <path
         d="m -427.12057,824.87166 13.54697,0 0,42.38157 -13.54697,0 0,-42.38157 m 0,-16.49854 13.54697,0 0,11.04948 -13.54697,0 0,-11.04948"
         style="font-variant:normal;font-weight:bold;font-stretch:normal;fill:#ffffff;font-family:Webdings;-inkscape-font-specification:Webdings Bold"
         id="path3013" />
      <path
         d="m -357.8721,841.44588 0,25.80735 -13.62265,0 0,-4.20031 0,-15.55253 c -4e-5,-3.65791 -0.0883,-6.18062 -0.26489,-7.56813 -0.15139,-1.38747 -0.42889,-2.40916 -0.83249,-3.0651 -0.5298,-0.88292 -1.24878,-1.56405 -2.15692,-2.0434 -0.90821,-0.50451 -1.94252,-0.75678 -3.10294,-0.75681 -2.82546,3e-5 -5.04545,1.09741 -6.65996,3.29214 -1.61456,2.16956 -2.42182,5.1842 -2.4218,9.04392 l 0,20.85022 -13.54697,0 0,-42.38157 13.54697,0 0,6.20587 c 2.04337,-2.47222 4.2129,-4.28857 6.5086,-5.44905 2.29564,-1.18564 4.83096,-1.77847 7.60597,-1.77852 4.89403,5e-5 8.60241,1.50106 11.12517,4.50305 2.54789,3.00206 3.82186,7.36635 3.82191,13.09287"
         style="font-variant:normal;font-weight:bold;font-stretch:normal;fill:#ffffff;font-family:Webdings;-inkscape-font-specification:Webdings Bold"
         id="path3015" />
      <path
         d="m -316.39871,860.0635 c -1.86684,2.47227 -3.92285,4.28862 -6.16803,5.44906 -2.24524,1.16045 -4.84363,1.74067 -7.79518,1.74067 -5.17158,0 -9.44757,-2.03078 -12.828,-6.09235 -3.38044,-4.08678 -5.07065,-9.28356 -5.07065,-15.59036 0,-6.33198 1.69021,-11.51615 5.07065,-15.55252 3.38043,-4.06153 7.65642,-6.09231 12.828,-6.09236 2.95155,5e-5 5.54994,0.58027 7.79518,1.74068 2.24518,1.16048 4.30119,2.98945 6.16803,5.4869 l 0,-6.28156 13.62265,0 0,38.10558 c -5e-5,6.81132 -2.15697,12.0081 -6.47076,15.59036 -4.28865,3.60747 -10.51974,5.4112 -18.6933,5.41122 -2.64887,-2e-5 -5.20942,-0.20183 -7.68166,-0.60545 -2.47227,-0.40365 -4.95714,-1.02171 -7.45461,-1.85419 l 0,-10.55756 c 2.37133,1.36226 4.69223,2.37135 6.96268,3.02726 2.27043,0.68112 4.55348,1.02169 6.84917,1.0217 4.43994,-10e-6 7.69424,-0.97125 9.7629,-2.91374 2.06859,-1.94249 3.1029,-4.98235 3.10293,-9.1196 l 0,-2.91374 m -8.9304,-26.37496 c -2.80024,4e-5 -4.98238,1.03435 -6.54644,3.10294 -1.5641,2.06865 -2.34614,4.995 -2.34612,8.77904 -2e-5,3.88499 0.75679,6.83657 2.27044,8.85472 1.5136,1.99295 3.72098,2.98943 6.62212,2.98942 2.82541,10e-6 5.02017,-1.03431 6.58428,-3.10294 1.56405,-2.06861 2.34609,-4.98234 2.34612,-8.7412 -3e-5,-3.78404 -0.78207,-6.71039 -2.34612,-8.77904 -1.56411,-2.06859 -3.75887,-3.1029 -6.58428,-3.10294"
         style="font-variant:normal;font-weight:bold;font-stretch:normal;fill:#ffffff;font-family:Webdings;-inkscape-font-specification:Webdings Bold"
         id="path3017" />
      <path
         d="m -274.88746,812.83832 0,12.03334 13.96321,0 0,9.68722 -13.96321,0 0,17.97433 c -3e-5,1.96772 0.391,3.30476 1.17306,4.01111 0.78202,0.68114 2.33348,1.02171 4.6544,1.0217 l 6.96269,0 0,9.68721 -11.61709,0 c -5.34817,0 -9.14485,-1.10999 -11.39005,-3.32998 -2.22,-2.2452 -3.32999,-6.04188 -3.32998,-11.39004 l 0,-17.97433 -6.73564,0 0,-9.68722 6.73564,0 0,-12.03334 13.54697,0"
         style="font-variant:normal;font-weight:bold;font-stretch:normal;fill:#ffffff;font-family:Webdings;-inkscape-font-specification:Webdings Bold"
         id="path3019" />
      <path
         d="m -232.43022,833.53718 c -3.00206,3e-5 -5.29772,1.0848 -6.88701,3.2543 -1.5641,2.14433 -2.34614,5.24727 -2.34612,9.30881 -2e-5,4.06158 0.78202,7.17713 2.34612,9.34665 1.58929,2.14431 3.88495,3.21647 6.88701,3.21646 2.95154,10e-6 5.20937,-1.07215 6.77348,-3.21646 1.56405,-2.16952 2.34609,-5.28507 2.34612,-9.34665 -3e-5,-4.06154 -0.78207,-7.16448 -2.34612,-9.30881 -1.56411,-2.1695 -3.82194,-3.25427 -6.77348,-3.2543 m 0,-9.68722 c 7.2906,5e-5 12.97931,1.96776 17.06615,5.90315 4.11197,3.93547 6.16798,9.38452 6.16803,16.34718 -5e-5,6.9627 -2.05606,12.41175 -6.16803,16.34718 -4.08684,3.93543 -9.77555,5.90314 -17.06615,5.90314 -7.31589,0 -13.04244,-1.96771 -17.17968,-5.90314 -4.11202,-3.93543 -6.16803,-9.38448 -6.16803,-16.34718 0,-6.96266 2.05601,-12.41171 6.16803,-16.34718 4.13724,-3.93539 9.86379,-5.9031 17.17968,-5.90315"
         style="font-variant:normal;font-weight:bold;font-stretch:normal;fill:#ffffff;font-family:Webdings;-inkscape-font-specification:Webdings Bold"
         id="path3021" />
      <path
         d="m -156.711,841.44588 0,25.80735 -13.62265,0 0,-4.20031 0,-15.55253 c -3e-5,-3.65791 -0.0883,-6.18062 -0.26488,-7.56813 -0.1514,-1.38747 -0.4289,-2.40916 -0.8325,-3.0651 -0.5298,-0.88292 -1.24877,-1.56405 -2.15692,-2.0434 -0.90821,-0.50451 -1.94252,-0.75678 -3.10293,-0.75681 -2.82547,3e-5 -5.04545,1.09741 -6.65997,3.29214 -1.61455,2.16956 -2.42182,5.1842 -2.4218,9.04392 l 0,20.85022 -13.54697,0 0,-42.38157 13.54697,0 0,6.20587 c 2.04337,-2.47222 4.21291,-4.28857 6.5086,-5.44905 2.29564,-1.18564 4.83096,-1.77847 7.60598,-1.77852 4.89402,5e-5 8.6024,1.50106 11.12516,4.50305 2.54789,3.00206 3.82186,7.36635 3.82191,13.09287"
         style="font-variant:normal;font-weight:bold;font-stretch:normal;fill:#ffffff;font-family:Webdings;-inkscape-font-specification:Webdings Bold"
         id="path3023" />
    </g>
  </g>
</svg>
