<?xml version="1.0" encoding="UTF-8" standalone="no"?>
<!-- Created with Inkscape (http://www.inkscape.org/) -->

<svg
   xmlns:dc="http://purl.org/dc/elements/1.1/"
   xmlns:cc="http://creativecommons.org/ns#"
   xmlns:rdf="http://www.w3.org/1999/02/22-rdf-syntax-ns#"
   xmlns:svg="http://www.w3.org/2000/svg"
   xmlns="http://www.w3.org/2000/svg"
   xmlns:sodipodi="http://sodipodi.sourceforge.net/DTD/sodipodi-0.dtd"
   xmlns:inkscape="http://www.inkscape.org/namespaces/inkscape"
   width="512"
   height="512"
   id="svg2"
   version="1.1"
   inkscape:version="0.48.5 r10040"
   sodipodi:docname="notif.svg">
  <defs
     id="defs4" />
  <sodipodi:namedview
     id="base"
     pagecolor="#ffffff"
     bordercolor="#666666"
     borderopacity="1.0"
     inkscape:pageopacity="0.0"
     inkscape:pageshadow="2"
     inkscape:zoom="1.4"
     inkscape:cx="192.57108"
     inkscape:cy="250.44882"
     inkscape:document-units="px"
     inkscape:current-layer="layer1"
     showgrid="false"
     inkscape:window-width="1279"
     inkscape:window-height="1379"
     inkscape:window-x="2560"
     inkscape:window-y="27"
     inkscape:window-maximized="0" />
  <metadata
     id="metadata7">
    <rdf:RDF>
      <cc:Work
         rdf:about="">
        <dc:format>image/svg+xml</dc:format>
        <dc:type
           rdf:resource="http://purl.org/dc/dcmitype/StillImage" />
        <dc:title />
      </cc:Work>
    </rdf:RDF>
  </metadata>
  <g
     inkscape:label="Layer 1"
     inkscape:groupmode="layer"
     id="layer1"
     transform="translate(0,-540.36218)">
    <path
       style="fill:#ffffff;fill-opacity:1;stroke:none"
       d="m 256,540.36218 c -141.38489,0 -256,114.61511 -256,256 0,101.30552 58.846128,188.84108 144.21875,230.34372 13.79069,8.491 27.56451,17.0028 41.3125,25.5625 l 7.6875,-7.6875 c 20.09256,5.0669 41.11532,7.7813 62.78125,7.7813 141.38488,0 256,-114.61514 256,-256.00002 0,-21.59726 -2.68298,-42.55891 -7.71875,-62.59375 3.5417,-3.51822 6.58093,-7.46012 6.96875,-12.65625 C 505.45995,716.7756 500.53431,710.8604 495.34375,705.39343 458.65785,608.92036 365.34525,540.36218 256,540.36218 z m 0,17.21875 c 94.09542,0 175.50616,54.51273 214.40625,133.65625 -3.34212,0.1942 -6.51886,1.17299 -9.40625,2.78125 -37.56555,-75.1512 -115.22305,-126.71875 -205,-126.71875 -126.56622,0 -229.0625,102.49628 -229.0625,229.0625 0,84.57235 45.775927,158.3834 113.90625,198.0625 l -7.0625,7.06252 C 63.989553,959.79585 17.21875,883.5191 17.21875,796.36218 17.21875,664.54701 124.18483,557.58093 256,557.58093 z m -99.09375,93.375 111.3125,0 c 39.92572,2.8e-4 68.81133,6.05765 86.65625,18.125 17.97283,12.0679 26.96849,31.36326 26.96875,57.9375 -2.6e-4,13.99352 -3.29667,25.95875 -9.84375,35.84375 -6.54758,9.75698 -16.04746,17.00013 -28.5,21.75 6.97977,2.02648 13.27147,4.80892 18.875,8.34375 -3.82621,3.79295 -8.06948,7.32151 -10.8125,11.90625 -3.72311,1.44834 -6.78525,4.16317 -9.5,7.0625 -5.86699,6.6221 -6.91907,15.4234 -4.6875,23.5625 -2.22065,-0.95425 -4.59196,-1.67289 -7.15625,-2.03125 -4.44284,-0.26048 -8.75367,1.06997 -12.5,3.40625 -1.77251,-6.05415 -4.91756,-10.94669 -9.4375,-14.6875 -7.44617,-6.29045 -18.69856,-9.43738 -33.71875,-9.4375 l -43.5,0 0,75.28125 13.4375,0 c -0.72215,1.13494 -1.32653,2.34555 -1.75,3.65625 l -1.78125,-1.78125 c -0.46406,0.58186 -0.91097,1.13687 -1.375,1.71875 -4.98311,7.79216 -15.64886,12.16467 -16.375,22.34375 l 16.53125,16.5 c -8.06606,-1.22039 -16.54132,0.71423 -22.84375,6.46875 -0.55569,0.52102 -1.10132,1.0408 -1.65625,1.5625 l -58.34375,0 0,-287.53125 z m 313.84375,48.25 c 0.48136,-0.017 0.98043,-0.0111 1.46875,0.0312 3.92441,0.32115 7.91945,2.51327 11.96875,6.5625 l 18.25,18.25 -9.65625,9.625 -2.96875,-2.96875 -10.96875,-11 c -2.58655,-2.58651 -4.45652,-4.29999 -5.5625,-5.15625 -1.08815,-0.87403 -2.00079,-1.38407 -2.75,-1.5625 -0.99894,-0.2497 -1.98763,-0.24074 -2.96875,0.0625 -0.99894,0.28546 -1.8982,0.83574 -2.71875,1.65625 -1.99789,1.99793 -2.78527,4.3377 -2.375,7.03125 0.39245,2.67577 1.927,5.39578 4.65625,8.125 l 14.75,14.75 -9.5625,9.5625 -29.96875,-29.96875 9.5625,-9.5625 4.40625,4.375 c -0.30325,-3.19301 -0.0527,-5.99362 0.75,-8.4375 0.78489,-2.46164 2.13155,-4.69398 4.09375,-6.65625 3.02805,-3.02799 6.22426,-4.5997 9.59375,-4.71875 z m -239.6875,2.21875 0,60.84375 41,0 c 11.68234,1.7e-4 20.55976,-2.55216 26.59375,-7.6875 6.03364,-5.13497 9.03106,-12.70499 9.03125,-22.71875 -1.9e-4,-9.88498 -2.99761,-17.39586 -9.03125,-22.53125 -6.03399,-5.26331 -14.91141,-7.90601 -26.59375,-7.90625 l -41,0 z m 203.375,37.59375 c 5.6904,-0.1248 10.98287,2.26419 15.90625,7.1875 4.92334,4.92341 7.34358,10.24713 7.21875,15.9375 -0.10706,5.6726 -2.75102,11.06352 -7.90625,16.21875 -5.17312,5.17311 -10.60426,7.82604 -16.3125,7.96875 -5.69041,0.12486 -11.01412,-2.26413 -15.9375,-7.1875 -4.92334,-4.92334 -7.31234,-10.21581 -7.1875,-15.90625 0.14273,-5.70821 2.79567,-11.1706 7.96875,-16.34375 5.15527,-5.1552 10.57742,-7.7679 16.25,-7.875 z m 55.09375,7.4375 c 3.42867,16.10145 5.25,32.78661 5.25,49.90625 0,131.81516 -106.96609,238.78122 -238.78125,238.78122 -17.3636,0 -34.28021,-1.8818 -50.59375,-5.4062 -2.46394,-3.8857 -4.90549,-7.7672 -7.3125,-11.6875 0.58149,0.1513 1.16672,0.2907 1.75,0.4375 4.01496,2.4749 8.01069,4.9518 12,7.4687 1.34318,-1.3431 2.68807,-2.688 4.03125,-4.0312 13.02824,2.2993 26.43422,3.5 40.125,3.5 126.56621,0 229.0625,-102.49631 229.0625,-229.06252 0,-13.67839 -1.17348,-27.07662 -3.46875,-40.09375 3.19119,-2.94765 6.34657,-5.89154 7.9375,-9.8125 z m -59.3125,4.71875 c -1.87636,0.15052 -3.6222,0.99722 -5.1875,2.5625 -2.12276,2.12279 -2.97277,4.52964 -2.5625,7.1875 0.41029,2.62226 2.06554,5.37808 4.9375,8.25 2.87195,2.87199 5.60993,4.5094 8.25,4.9375 2.64005,0.39246 5.03348,-0.47097 7.15625,-2.59375 2.08706,-2.08705 2.94151,-4.44025 2.53125,-7.0625 -0.42813,-2.64003 -2.0968,-5.40926 -4.96875,-8.28125 -2.87197,-2.87193 -5.62778,-4.49593 -8.25,-4.90625 -0.66001,-0.10702 -1.2808,-0.14392 -1.90625,-0.0937 z m -31.4375,16.59375 6.84375,6.84375 -9.875,9.875 12.71875,12.71875 c 1.39136,1.39141 2.60378,2.05354 3.65625,2 1.03461,-0.0713 2.35887,-0.92136 4,-2.5625 l 4.9375,-4.9375 6.84375,6.875 -8.21875,8.21875 c -3.78173,3.78172 -7.24889,5.66967 -10.40625,5.6875 -3.15738,-0.0178 -6.62453,-1.90577 -10.40625,-5.6875 l -12.71875,-12.71875 -4.75,4.75 -6.84375,-6.84375 4.75,-4.75 -8.5,-8.53125 9.5625,-9.5625 8.53125,8.5 9.875,-9.875 z m -29.59375,29.59375 26.9375,26.9375 c 4.8163,4.81637 6.95477,10.04165 6.4375,15.625 -0.48166,5.5834 -3.59543,11.25166 -9.375,17.03125 -1.87304,1.87302 -3.84146,3.53726 -5.875,5 -2.03358,1.46273 -4.20787,2.79142 -6.5625,3.96875 l -7.46875,-7.46875 c 2.64004,-0.71352 4.99325,-1.6396 7.0625,-2.78125 2.08706,-1.12382 3.93919,-2.50171 5.5625,-4.125 3.1395,-3.13952 4.75454,-6.13243 4.84375,-8.96875 0.0892,-2.83626 -1.32454,-5.6995 -4.25,-8.625 l -2.0625,-2.0625 c 0.4281,3.06821 0.23578,5.81061 -0.53125,8.21875 -0.76706,2.40818 -2.19419,4.63169 -4.28125,6.71875 -3.65686,3.65686 -8.11271,5.26288 -13.375,4.78125 -5.28012,-0.49946 -10.13417,-2.97792 -14.59375,-7.4375 -4.47739,-4.47739 -6.94244,-9.34927 -7.40625,-14.59375 -0.48161,-5.26226 1.09318,-9.71811 4.75,-13.375 2.0871,-2.08703 4.34185,-3.51416 6.75,-4.28125 2.40817,-0.767 5.16399,-0.91466 8.25,-0.46875 l -4.46875,-4.46875 9.65625,-9.625 z m -3.8125,19.65625 c -2.18519,-0.0546 -4.1581,0.78314 -5.90625,2.53125 -1.98004,1.9801 -2.79426,4.24383 -2.4375,6.8125 0.35677,2.56874 1.88676,5.19929 4.5625,7.875 2.74709,2.74711 5.3464,4.29951 7.84375,4.65625 2.47951,0.33895 4.76109,-0.51108 6.8125,-2.5625 1.99787,-1.99786 2.79425,-4.27502 2.4375,-6.84375 -0.35678,-2.56868 -1.8421,-5.18581 -4.5,-7.84375 -2.67574,-2.6757 -5.30629,-4.20569 -7.875,-4.5625 -0.32109,-0.0446 -0.62533,-0.0547 -0.9375,-0.0625 z m 0.25,8.34375 c 2.54529,0.0364 5.59611,4.091 4.34375,5.46875 -2.00818,-0.50244 -4.34665,-3.65683 -4.84375,-5.4375 0.16361,-0.0354 0.33031,-0.0337 0.5,-0.0312 z m -37.09375,16.09375 c 0.48136,-0.017 0.94918,-0.0111 1.4375,0.0312 3.92441,0.32114 7.91945,2.51327 11.96875,6.5625 l 18.25,18.25 -9.625,9.625 -2.96875,-2.96875 -11,-11 c -2.58657,-2.58651 -4.42526,-4.3 -5.53125,-5.15625 -1.08813,-0.87404 -2.03204,-1.41531 -2.78125,-1.59375 -0.99894,-0.24969 -1.98765,-0.20948 -2.96875,0.0937 -0.99895,0.28546 -1.89819,0.83573 -2.71875,1.65625 -1.99788,1.99792 -2.78527,4.33771 -2.375,7.03125 0.39245,2.67577 1.95825,5.39577 4.6875,8.125 l 14.71875,14.71875 -9.5625,9.59375 -29.96875,-29.96875 9.5625,-9.59375 4.40625,4.40625 c -0.30324,-3.193 -0.0527,-6.02486 0.75,-8.46875 0.78489,-2.46164 2.16281,-4.66273 4.125,-6.625 3.02806,-3.02799 6.22426,-4.5997 9.59375,-4.71875 z m -49.375,22.59375 7.8125,7.8125 -9.5625,9.5625 -7.8125,-7.8125 9.5625,-9.5625 z m 89.5625,1.28125 c 1.77334,1.98236 3.68579,3.884 5.46875,5.78125 5.1617,4.06011 12.4083,2.41741 16.75,-1.96875 0.68853,-0.39259 1.36199,-0.8063 2.03125,-1.25 -2.36757,21.83854 -11.53344,38.56396 -27.5,50.15625 -15.32308,11.12485 -37.16715,17.71369 -65.53125,19.75 4.0077,-3.79119 8.38385,-7.30046 10.0625,-12.4375 0.71373,0.70374 1.4066,1.42577 2.125,2.125 3.64024,-8.31543 13.90003,-12.38396 16.71875,-20.9375 0.70297,0.72206 1.42817,1.42812 2.125,2.15625 3.93631,-9.28116 16.10105,-13.08897 17.28125,-23.8125 3.50838,5.87799 4.69961,-0.49332 7.75,-3.21875 4.91516,-4.76607 11.23236,-9.36422 12.71875,-16.34375 z m -77.875,10.375 29.96875,29.96875 -9.59375,9.59375 -29.96875,-29.96875 9.59375,-9.59375 z m -30.5,7.1875 41.625,41.625 -9.59375,9.59375 -41.625,-41.65625 9.59375,-9.5625 z m -18.84375,18.8125 41.625,41.65625 -9.59375,9.5625 -41.625,-41.625 9.59375,-9.59375 z m -6.9375,36.28125 c 0.34973,-0.0173 0.70908,-0.001 1.0625,0 5.67256,6e-5 10.88,2.34882 15.625,7.09375 l 2.75,2.75 -22.40625,22.375 c 2.47952,2.01574 4.98479,2.89259 7.5,2.625 2.51518,-0.26756 5.00263,-1.62762 7.5,-4.125 2.01571,-2.0157 3.79622,-4.36889 5.3125,-7.0625 1.51623,-2.72921 2.76444,-5.83843 3.78125,-9.28125 l 7.40625,7.40625 c -1.40925,3.12172 -3.03769,6.0252 -4.875,8.71875 -1.81953,2.71144 -3.85956,5.2033 -6.125,7.46875 -5.42284,5.42284 -11.0195,8.26369 -16.78125,8.53125 -5.76177,0.23191 -11.14811,-2.14811 -16.125,-7.125 -4.88767,-4.88767 -7.23644,-10.19356 -7.09375,-15.9375 0.16056,-5.76173 2.82692,-11.2331 8,-16.40625 4.41499,-4.41492 9.22284,-6.77094 14.46875,-7.03125 z m -3.125,11 c -1.85351,0.13271 -3.53284,0.93912 -5.03125,2.4375 -1.85518,1.85522 -2.83046,3.91309 -2.9375,6.125 -0.12486,2.19414 0.6357,4.40867 2.3125,6.65625 l 12.4375,-12.4375 c -1.81951,-1.81945 -3.82373,-2.74552 -6,-2.78125 -0.27203,-0.009 -0.51646,-0.019 -0.78125,0 z m -39.40625,5.5625 30.53125,49.34372 -11.875,11.9063 -37.625,-23.12502 23.21875,37.53122 -11.875,11.875 -49.46875,-30.4375 9.875,-9.875 35.9375,22.125 -22.1875,-35.87497 9.9375,-9.9375 35.875,22.18747 -22.125,-35.93747 9.78125,-9.78125 z"
       id="path2986"
       inkscape:connector-curvature="0" />
  </g>
</svg>
